<svg xmlns="http://www.w3.org/2000/svg" viewBox="0 0 119.27 119.27"><defs><style>.cls-1{fill:#f4f4f4;}.cls-2{fill:#ef7030;}.cls-3{fill:#c45b2c;}.cls-4{fill:#982ce5;}.cls-5{fill:#757575;}.cls-6{fill:#44abea;}.cls-7{fill:#76caf4;}.cls-8{fill:#3e9ece;}.cls-9{fill:#e2a92b;}.cls-10{fill:#b78520;}.cls-11{fill:#f2c475;}</style></defs><title>Asset 44</title><g id="Layer_2" data-name="Layer 2"><g id="Layer_1-2" data-name="Layer 1"><circle class="cls-1" cx="59.64" cy="59.64" r="59.64"/><path class="cls-2" d="M49.44,18.6a1.27,1.27,0,0,0-2,1.31c1,4.73,3.4,14.09,7.8,21.16,6.12,9.84,12,4.21,12,4.21S68.2,31.73,49.44,18.6Z"/><path class="cls-3" d="M65.38,17.72a1.14,1.14,0,0,0-2,.62c-.35,4.31-.69,13,1.27,20.16,2.73,10,9.22,6.7,9.22,6.7S78.11,33.8,65.38,17.72Z"/><path class="cls-3" d="M78.82,28a1.14,1.14,0,0,0-2.07-.46c-2.44,3.57-7,10.91-8.9,18.13C65.25,55.71,72.53,56,72.53,56S81.89,48.26,78.82,28Z"/><path class="cls-4" d="M79.07,42.63H56.76a3.35,3.35,0,0,0-3.24,4.19l6.64,25.36a3.34,3.34,0,0,0,3.23,2.5H94.74A3.36,3.36,0,0,0,98,72.18l6.63-25.36a3.34,3.34,0,0,0-3.24-4.19Z"/><path class="cls-5" d="M79.07,25.11c-13.61,0-11.9,17.52-11.9,17.52H69c-.39-11,6.06-14.25,10.11-14.25s10.5,3.3,10.11,14.25H91S92.68,25.11,79.07,25.11Z"/><rect class="cls-6" x="22.4" y="43.93" width="21.33" height="35.95"/><polygon class="cls-7" points="37.48 38.18 37.48 36.02 33.07 36.02 28.65 36.02 28.65 38.18 22.4 43.93 33.07 43.93 43.73 43.93 37.48 38.18"/><polygon class="cls-8" points="33.07 48.38 23.9 78.52 42.07 78.52 33.07 48.38"/><path class="cls-9" d="M71.78,82.06a98.11,98.11,0,0,0-21.42,6.25c-1.75.92-9,2.92-9,2.92s6.75,11.42,11,15.75a24.16,24.16,0,0,1,5-1.17c2.17-.16,18-4.33,21.42-7a35,35,0,0,1,7.5-4.29L74.86,81.65Z"/><path class="cls-10" d="M50.36,89.65a46.38,46.38,0,0,0,4.5,7.5,70.87,70.87,0,0,1,4.58,6.66,46.38,46.38,0,0,0-5.16.84S50.44,93,49.36,91.73,50.36,89.65,50.36,89.65Z"/><path class="cls-10" d="M72.86,83.48c.17.25,8.86,10.33,9.93,11.92l2.49-1.09Z"/><path class="cls-11" d="M60.61,100.4c.09.07,10.75-6.09,18.46-7.09,0,0-.38-1.41-1.21-1.25S60.28,94.81,58.61,95.4,58.61,99,60.61,100.4Z"/><path class="cls-11" d="M57.36,93.4S74.44,91,75.78,90.56s-1.09-2.33-1.34-2.08S56.78,91.56,57.36,93.4Z"/></g></g></svg>