<svg xmlns="http://www.w3.org/2000/svg" viewBox="0 0 22.55 30.31"><defs><style>.cls-1{fill:#2a81ea;}</style></defs><title>Asset 54</title><g id="Layer_2" data-name="Layer 2"><g id="Layer_1-2" data-name="Layer 1"><path class="cls-1" d="M.2,13.85a24.75,24.75,0,0,0,2.25,6.57l0,0h0a24.18,24.18,0,0,0,3.87,5.77,12.74,12.74,0,0,0,15,2.75,1.87,1.87,0,0,0,.65-.52,2.34,2.34,0,0,0-.5-3.39l-6-4.17a2.21,2.21,0,0,0-2.81.22c-1.12,1.4.2,3.09.2,3.09-4-1.25-6-6-6-6h0v0S4.37,13.76,5.81,9.81c0,0,.54,2.07,2.34,2A2.24,2.24,0,0,0,10,9.73l.28-7.27A2.33,2.33,0,0,0,7.92,0a2.11,2.11,0,0,0-.8.21A12.75,12.75,0,0,0,.2,13.85Z"/></g></g></svg>