<svg xmlns="http://www.w3.org/2000/svg" viewBox="0 0 58.6 58.04"><defs><style>.cls-1{fill:#fff;}</style></defs><title>Asset 45</title><g id="Layer_2" data-name="Layer 2"><g id="Layer_1-2" data-name="Layer 1"><circle class="cls-1" cx="7.05" cy="52.91" r="5.14"/><circle class="cls-1" cx="40.64" cy="52.91" r="5.14"/><path class="cls-1" d="M58.6,1.55A1.54,1.54,0,0,1,57.05,3.1c-4.46,0-6.06,6.11-6.53,8.5h0L47.1,40.27a8.69,8.69,0,0,1-8.4,6.47H11.26a8.69,8.69,0,0,1-8.63-7.68L0,17A4.86,4.86,0,0,1,4.85,11.6H47.37C47.76,9.19,49.71,0,57.05,0A1.54,1.54,0,0,1,58.6,1.55Z"/></g></g></svg>