<svg xmlns="http://www.w3.org/2000/svg" viewBox="0 0 59.64 49.19"><defs><style>.cls-1{fill:#777;}</style></defs><title>Asset 23</title><g id="Layer_2" data-name="Layer 2"><g id="Layer_1-2" data-name="Layer 1"><path class="cls-1" d="M46.21,0h-1.1L43.78,8a5.15,5.15,0,0,0-1.68-.29H4.89A4.92,4.92,0,0,0,0,13.17L2.71,34.76a5.78,5.78,0,0,0,5.61,5.09,4.66,4.66,0,1,0,.11,0H37v.07a4.63,4.63,0,1,0,1.25,0v-.1a5,5,0,0,0,1.81-.56,5.47,5.47,0,0,0,3-3.59,2.74,2.74,0,0,0,.17-.64l3.62-21.65a4.07,4.07,0,0,0,.06-.6l0-.23,1.51-8.92H59.64V0ZM37,44.77a.7.7,0,0,1-.05-.25.66.66,0,0,1,.05-.25Zm1.29-.25a.71.71,0,0,1,0,.21V44.3A.54.54,0,0,1,38.32,44.52Zm1.06-10.25,0,.08-.07.29a1.43,1.43,0,0,1-.82,1l-.13.06-.13.07a1.11,1.11,0,0,1-.54.12H8.43l0,4.86h0l0-4.86a1.78,1.78,0,0,1-1.74-1.58L4,12.7A.86.86,0,0,1,4.24,12a.84.84,0,0,1,.65-.3H42.1a.9.9,0,0,1,.43.09l.51.36,0,.14,0,.25v.23Z"/></g></g></svg>