<svg xmlns="http://www.w3.org/2000/svg" viewBox="0 0 53.63 46.36"><defs><style>.cls-1{fill:#f7e2c1;}.cls-2{fill:#e8ad4d;}.cls-3{fill:#efb454;}</style></defs><title>Asset 73</title><g id="Layer_2" data-name="Layer 2"><g id="Layer_1-2" data-name="Layer 1"><polygon class="cls-1" points="0 12.84 20.15 12.84 27.79 0 10.4 0 0 12.84"/><polygon class="cls-2" points="34.55 46.36 20.15 12.84 0 12.84 34.55 46.36"/><polygon class="cls-1" points="48.95 12.84 34.55 46.36 20.15 12.84 48.95 12.84"/><path class="cls-3" d="M48.94,12.84H20.15l.32-.55C21.91,9.83,27.69,0,27.79,0H41.3c.11,0,5.88,9.83,7.32,12.29Z"/><path class="cls-1" d="M53.63,2.12V12.84H48.94l-5.89-9.9L41.3,0h12A7.07,7.07,0,0,1,53.63,2.12Z"/><polygon class="cls-2" points="53.63 12.84 53.63 27.84 34.55 46.36 48.94 12.84 53.63 12.84"/><polygon class="cls-2" points="48.95 12.84 20.15 12.84 20.48 12.29 27.79 0 41.3 0 48.62 12.29 48.95 12.84"/></g></g></svg>