<svg xmlns="http://www.w3.org/2000/svg" viewBox="0 0 332.46 282.05"><defs><style>.cls-1{fill:#f7b228;}.cls-2{fill:#982ce5;}.cls-3{fill:#e8adf7;}.cls-4{fill:#fff;}</style></defs><title>Asset 58</title><g id="Layer_2" data-name="Layer 2"><g id="Layer_1-2" data-name="Layer 1"><circle class="cls-1" cx="166.23" cy="141.03" r="141.03"/><path class="cls-2" d="M314.68,36H17.78A17.78,17.78,0,0,0,0,53.79V225.44a17.78,17.78,0,0,0,17.78,17.78h296.9a17.78,17.78,0,0,0,17.78-17.78V53.79A17.78,17.78,0,0,0,314.68,36ZM19.41,60.36a5.8,5.8,0,1,1,5.8-5.8A5.79,5.79,0,0,1,19.41,60.36Zm21.26,0a5.8,5.8,0,1,1,5.8-5.8A5.8,5.8,0,0,1,40.67,60.36Zm21.26,0a5.8,5.8,0,1,1,5.8-5.8A5.8,5.8,0,0,1,61.93,60.36Zm247,0H87.76a5.8,5.8,0,1,1,0-11.59H308.88a5.8,5.8,0,1,1,0,11.59Z"/><rect class="cls-3" x="10.82" y="72.35" width="310.82" height="160.05" rx="5.06" ry="5.06"/><rect class="cls-4" x="25.21" y="97.86" width="282.05" height="47.94" rx="3.57" ry="3.57"/><rect class="cls-4" x="25.21" y="165.9" width="126.34" height="23.97" rx="3.36" ry="3.36"/><rect class="cls-4" x="180.92" y="165.9" width="126.34" height="23.97" rx="3.36" ry="3.36"/></g></g></svg>