<svg xmlns="http://www.w3.org/2000/svg" viewBox="0 0 628.17 383.34"><defs><style>.cls-1{fill:#d96cef;}.cls-2{fill:#751fc1;}.cls-3{fill:#982ce5;}.cls-4{fill:#f7b228;}.cls-5{fill:#ce8d1b;}.cls-6{fill:#fff;}</style></defs><title>Asset 55</title><g id="Layer_2" data-name="Layer 2"><g id="Layer_1-2" data-name="Layer 1"><polygon class="cls-1" points="309.74 174.46 287.8 174.46 266.5 174.46 134.18 174.46 43.89 206.26 266.5 206.26 287.8 206.26 400.03 206.26 309.74 174.46"/><rect class="cls-2" y="343.6" width="443.92" height="39.74"/><polygon class="cls-1" points="353.63 311.8 285.91 311.8 258.01 311.8 253.63 311.8 190.29 311.8 185.91 311.8 158 311.8 90.29 311.8 0 343.6 67.72 343.6 185.91 343.6 190.29 343.6 253.63 343.6 258.01 343.6 376.2 343.6 443.92 343.6 353.63 311.8"/><path class="cls-3" d="M37.23,204.85H406.69a3.38,3.38,0,0,1,3.38,3.38V343.6a0,0,0,0,1,0,0H33.86a0,0,0,0,1,0,0V208.23A3.38,3.38,0,0,1,37.23,204.85Z"/><rect class="cls-2" x="95.72" y="289.09" width="252.47" height="27.22"/><polygon class="cls-2" points="300.54 180.19 224.15 180.19 219.77 180.19 143.37 180.19 135.85 185.21 219.77 185.21 224.15 185.21 308.07 185.21 300.54 180.19"/><path class="cls-4" d="M300.64,56.14V182.7H143.28V56.14a12.21,12.21,0,0,1,12.19-12.23H288.4A12.22,12.22,0,0,1,300.64,56.14Z"/><rect class="cls-5" x="157.06" y="74.12" width="129.79" height="10.66" rx="1.06" ry="1.06"/><rect class="cls-5" x="157.06" y="102.64" width="102.52" height="10.66" rx="1.06" ry="1.06"/><rect class="cls-5" x="157.06" y="131.16" width="68.66" height="10.66" rx="1.06" ry="1.06"/><rect class="cls-5" x="247.35" y="131.16" width="39.5" height="10.66" rx="1.06" ry="1.06"/><rect class="cls-5" x="157.06" y="159.68" width="129.79" height="10.66" rx="1.06" ry="1.06"/><circle class="cls-6" cx="322.98" cy="244.59" r="8.62"/><circle class="cls-6" cx="353.15" cy="244.59" r="8.62"/><polygon class="cls-4" points="309.74 307.43 287.8 307.43 266.5 307.43 134.18 307.43 43.89 339.23 266.5 339.23 287.8 339.23 400.03 339.23 309.74 307.43"/><rect class="cls-4" x="445.22" width="157.35" height="213.53" rx="12.05" ry="12.05"/><rect class="cls-5" x="456.75" y="11.53" width="157.35" height="213.53" rx="12.05" ry="12.05"/><rect class="cls-4" x="470.81" y="25.59" width="157.35" height="213.53" rx="3.15" ry="3.15"/><rect class="cls-5" x="484.6" y="55.81" width="129.79" height="10.66" rx="1.06" ry="1.06"/><rect class="cls-5" x="484.6" y="84.33" width="102.52" height="10.66" rx="1.06" ry="1.06"/><rect class="cls-5" x="484.6" y="112.85" width="68.66" height="10.66" rx="1.06" ry="1.06"/><rect class="cls-5" x="574.88" y="112.85" width="39.5" height="10.66" rx="1.06" ry="1.06"/><rect class="cls-5" x="484.6" y="141.37" width="129.79" height="10.66" rx="1.06" ry="1.06"/><rect class="cls-5" x="484.6" y="169.89" width="129.79" height="10.66" rx="1.06" ry="1.06"/><rect class="cls-5" x="484.6" y="198.41" width="68.66" height="10.66" rx="1.06" ry="1.06"/></g></g></svg>