<svg xmlns="http://www.w3.org/2000/svg" viewBox="0 0 556.61 291.26"><defs><style>.cls-1,.cls-6{fill:#fff;}.cls-2{fill:#d96cef;}.cls-3{fill:#f7b228;}.cls-4{fill:#ce8d1b;}.cls-5{fill:#982ce5;}.cls-6{font-size:35.48px;font-family:LotaGrotesque-Regular, Lota Grotesque;}.cls-7{letter-spacing:-0.01em;}.cls-8{letter-spacing:-0.02em;}.cls-9{letter-spacing:-0.01em;}.cls-10{letter-spacing:0em;}.cls-11{letter-spacing:-0.02em;}</style></defs><title>Asset 50</title><g id="Layer_2" data-name="Layer 2"><g id="Layer_1-2" data-name="Layer 1"><rect class="cls-1" width="206.06" height="206.06" rx="9.83" ry="9.83"/><path class="cls-2" d="M180.52,10.39a15.17,15.17,0,0,1,15.15,15.15v155a15.16,15.16,0,0,1-15.15,15.15h-155a15.17,15.17,0,0,1-15.15-15.15v-155A15.17,15.17,0,0,1,25.54,10.39h155m0-10.39h-155A25.55,25.55,0,0,0,0,25.54v155a25.54,25.54,0,0,0,25.54,25.54h155a25.53,25.53,0,0,0,25.54-25.54v-155A25.54,25.54,0,0,0,180.52,0Z"/><path class="cls-3" d="M168.22,143s-5,10-19.13,17.88c0,0-34.64-61-51-81.42a1.58,1.58,0,0,0-2.85,1c2.36,27.22,10.57,95.64,10.57,95.64-15.71,4-26.18.13-26.18.13L58.09,72.78,54.42,55,53,48.25,52.92,48l54.47-19.9,3.34,6.28,8.6,16.23Z"/><path class="cls-4" d="M69.44,93.93c.56,4,2.34,20.2,3.48,22.3s.42-7.08,1.28-2.86,1.27,8.11,2,7.83-.17-6,.23-6.27,2.22,5.37,2.81,7.68,2,2.41.82-5.35-2.88-20.63-3.18-18-1.3,5.39-2.44.89-1.41-2.13-1.42.27S68.76,89.09,69.44,93.93Z"/><path class="cls-4" d="M119,77.59c1.86,3.64,8.81,18.33,10.58,19.94s-1.93-6.83.27-3.12,3.85,7.25,4.49,6.73-2.12-5.61-1.82-6,3.84,4.35,5.15,6.34,2.7,1.62-1-5.32-9.45-18.57-8.88-16,.53,5.53-2,1.64-2-1.55-1.25.72S116.77,73.24,119,77.59Z"/><path class="cls-4" d="M67.07,52.31s-.79,15.71-9,20.47L54.42,55A78.82,78.82,0,0,0,67.07,52.31Z"/><path class="cls-4" d="M107.39,28.14A132.74,132.74,0,0,1,80.72,41.51c-16.13,6-27.8,6.53-27.8,6.53Z"/><path class="cls-4" d="M119.33,50.65c-9.7.64-19.36-10.12-19.36-10.12a118.59,118.59,0,0,0,10.76-6.11Z"/><path class="cls-4" d="M83.11,48,93,75s1.87-2.57,1.79-4.18-8.62-23.59-8.62-23.59A3.88,3.88,0,0,0,83.11,48Z"/><rect class="cls-5" x="260.61" y="1.24" width="296" height="26.18" rx="4.6" ry="4.6"/><rect class="cls-5" x="262.53" y="212.4" width="294.08" height="78.86" rx="5.04" ry="5.04"/><rect class="cls-5" x="260.61" y="46.62" width="194.98" height="26.18" rx="4.6" ry="4.6"/><rect class="cls-5" x="490.05" y="46.62" width="66.56" height="26.18" rx="4.6" ry="4.6"/><rect class="cls-1" x="322.84" y="111.03" width="175.76" height="69.47" rx="6.33" ry="6.33"/><rect class="cls-3" x="275.91" y="126.16" width="6.97" height="37.57" transform="translate(134.45 424.33) rotate(-90)"/><polygon class="cls-3" points="556.61 141.46 541.3 141.46 541.3 126.16 534.34 126.16 534.34 141.46 519.04 141.46 519.04 148.43 534.34 148.43 534.34 163.73 541.3 163.73 541.3 148.43 556.61 148.43 556.61 141.46"/><path class="cls-5" d="M344.76,145.83c0-9.44,4-14.59,10.73-14.59s10.68,5.15,10.68,14.59-4,14.47-10.68,14.47S344.76,155.27,344.76,145.83Zm17.71,0c0-7.4-2.49-11.35-7-11.35s-7,4-7,11.35,2.54,11.22,7,11.22S362.47,153.27,362.47,145.83Z"/><text class="cls-6" transform="translate(309.45 265.36)">Out <tspan class="cls-7" x="67.87" y="0">o</tspan><tspan class="cls-8" x="87.66" y="0">f</tspan><tspan x="99.73" y="0" xml:space="preserve"> S</tspan><tspan class="cls-9" x="129.17" y="0">t</tspan><tspan class="cls-10" x="142.05" y="0">oc</tspan><tspan class="cls-11" x="181.11" y="0">k</tspan></text></g></g></svg>