<svg xmlns="http://www.w3.org/2000/svg" viewBox="0 0 57.28 48.43"><defs><style>.cls-1{fill:#777;}</style></defs><title>Asset 60</title><g id="Layer_2" data-name="Layer 2"><g id="Layer_1-2" data-name="Layer 1"><path class="cls-1" d="M52.85,8.08,51.4,4.4a6.91,6.91,0,0,0-2.55-3.18A6.84,6.84,0,0,0,44.94,0H12.31A6.86,6.86,0,0,0,8.42,1.21,7.06,7.06,0,0,0,5.87,4.4L4.42,8.09,0,19.34v2a5.7,5.7,0,0,0,4.42,5.56V40.49a7.94,7.94,0,0,0,7.94,7.94H44.91a7.93,7.93,0,0,0,7.94-7.94V26.86a5.7,5.7,0,0,0,4.43-5.56v-2ZM42.31,4.47l3.16,13.37.35,2c0,2.33-3.4,4.18-5.73,4.18s-5.73-1.85-5.73-4.18v-.5l-.11-1.5L33.19,4.47ZM11.81,17.84,15,4.47h9.12L23,17.84l-.12,1.5v.5c0,2.33-3.4,4.18-5.73,4.18s-5.73-1.85-5.73-4.18Zm37,22.65a4,4,0,0,1-3.94,3.94H34.37v-9a4,4,0,0,0-4-4H26.87a4,4,0,0,0-4,4v9H12.36a4,4,0,0,1-3.94-3.94V26.34A5.65,5.65,0,0,0,11,23.53a7.22,7.22,0,0,0,12.36,0,5.73,5.73,0,0,0,10.55,0,7.22,7.22,0,0,0,12.36,0,5.69,5.69,0,0,0,2.58,2.81Z"/></g></g></svg>