<svg xmlns="http://www.w3.org/2000/svg" viewBox="0 0 393.6 302.39"><defs><style>.cls-1{fill:#982ce5;}.cls-2{fill:#d96cef;}.cls-3{fill:#f7b228;}.cls-4{fill:#d39a48;}.cls-5{fill:#ce8d1b;}</style></defs><title>Asset 53</title><g id="Layer_2" data-name="Layer 2"><g id="Layer_1-2" data-name="Layer 1"><path class="cls-1" d="M201.66,302.39c-38.64,0-87.43-38-77.29-95.67s10.77-76,10.77-76,17.65-1.27,27.2,15.21c0,0,45-74.13,34.89-95.67,0,0,37.37,20.28,43.08,70.32S246,196,246,196s14.57-13.3,12-31c0,0,23.44,19,20.28,68.42S239,302.39,201.66,302.39Z"/><path class="cls-2" d="M200.81,288.87c-18.37,0-48.35-15.2-57.65-47.72s13.94-71.8,13.94-71.8,6.46,13.51,13.79,14.36c0,0,8.17-37.59,41.12-59.56,0,0-13.1,65.19,23.65,85.18,0,0,16.47,2.25,21.54-8.73C257.2,200.6,276.62,288.87,200.81,288.87Z"/><path class="cls-3" d="M200.81,283s-25.55-6.34-32.73-31.68,4.23-37.59,4.23-37.59,4.22,11.41,13.93,12.67c0,0,13.1-23.23,7.61-33.36,0,0,25.76,10.13,26.6,36.74,0,0,11.83,2.54,15.21-3C235.66,226.79,242.83,266.91,200.81,283Z"/><path class="cls-3" d="M393.29,224.42c-1.51,4.39-7.39,35.4-7.39,35.4l-2.61-.37s.28-18.72-2.86-23.64-16.75,1.12-24.33,6.56-13.45,11.3-25.05,9.65l-15.2-2.16a1.53,1.53,0,0,1-1.32-1.73,1.56,1.56,0,0,1,1.77-1.31c4.92.78,12.81,2,20.36,1.1,2.89-.35,6.51-2.29,10.3-4.95,2.23-1.58,4.53-3.41,6.81-5.32v0c3.27-2.77,6.44-5.69,9.25-8.29,2.15-2,4.08-3.85,5.62-5.21,0,0,.1-.09.15-.14,7.11-6.32,21.54-7.82,21.54-7.82S394.8,220,393.29,224.42Z"/><path class="cls-4" d="M353.77,237.63v0c-2.28,1.91-4.58,3.74-6.81,5.32,0,0-4.18-10-7.46-11.88,0,0,4.13-3.05,7.23-5A47.86,47.86,0,0,1,353.77,237.63Z"/><path class="cls-4" d="M386.48,202.6c.1.3-5.33,1-9,6-2.44,3.29-6.43,10.63-8.84,15.56-1.54,1.36-3.47,3.19-5.62,5.21,1.76-5.17,7.8-20.9,17.31-27.17a24.47,24.47,0,0,1,5.08-2.55S386.37,202.28,386.48,202.6Z"/><path class="cls-3" d="M92,211.58s-4,8-15.27,14.28c0,0-27.66-48.71-40.76-65a1.26,1.26,0,0,0-2.27.83C35.62,183.43,42.18,238,42.18,238c-12.54,3.23-20.9.1-20.9.1L4.12,155.57,1.19,141.38.06,136,0,135.82l43.48-15.88,2.67,5,6.86,13Z"/><path class="cls-5" d="M13.18,172.45c.45,3.24,1.87,16.13,2.78,17.81s.33-5.66,1-2.29,1,6.48,1.64,6.25-.14-4.78.19-5,1.76,4.29,2.23,6.13,1.61,1.93.66-4.27-2.3-16.47-2.53-14.37-1.05,4.31-2,.71-1.12-1.7-1.13.21S12.64,168.59,13.18,172.45Z"/><path class="cls-5" d="M52.73,159.41c1.49,2.91,7,14.64,8.45,15.92s-1.54-5.45.22-2.49,3.07,5.79,3.58,5.37-1.69-4.47-1.45-4.79,3.07,3.48,4.11,5.06,2.16,1.3-.77-4.24-7.55-14.82-7.09-12.76.42,4.41-1.61,1.31-1.62-1.24-1,.57S51,155.94,52.73,159.41Z"/><path class="cls-5" d="M11.3,139.23s-.64,12.54-7.18,16.34L1.19,141.38A63.2,63.2,0,0,0,11.3,139.23Z"/><path class="cls-5" d="M43.48,119.94a105.57,105.57,0,0,1-21.29,10.67C9.31,135.38,0,135.82,0,135.82Z"/><path class="cls-5" d="M53,137.91c-7.74.51-15.45-8.08-15.45-8.08A96.18,96.18,0,0,0,46.15,125Z"/><path class="cls-5" d="M24.1,135.75,32,157.33s1.5-2.06,1.43-3.34-6.88-18.83-6.88-18.83A3.07,3.07,0,0,0,24.1,135.75Z"/><path class="cls-3" d="M323.52,5.05l-6.22-1L306.82,8.52,298.26,1,292,0,261.12,10.07s0,14.26,3.84,18.26L275.57,30l-6.28,39.18s6.89,5.12,26.09,8.3h0l.36,0,.37.07h0c19.23,3,27.37.27,27.37.27l6.29-39.18,10.62,1.7c4.92-2.59,9.35-16.15,9.35-16.15Z"/></g></g></svg>