<svg xmlns="http://www.w3.org/2000/svg" viewBox="0 0 341.14 290.2"><defs><style>.cls-1{fill:#751fc1;}.cls-2{fill:#982ce5;}.cls-3{fill:#d96cef;}.cls-4{fill:#f7b228;}.cls-5{fill:#ce8d1b;}</style></defs><title>Asset 54</title><g id="Layer_2" data-name="Layer 2"><g id="Layer_1-2" data-name="Layer 1"><circle class="cls-1" cx="178.63" cy="195.91" r="19.45"/><path class="cls-2" d="M247,201.62c-11.65-8-20.73-23.74-8.69-52.13,12-28.21,29.83-76.78-18.85-98.16v0l-.48-.19-.47-.22v0c-49.21-20.14-71.7,26.47-83.67,54.68-12,28.4-29.64,32.79-43.51,30L85.16,150s9.61,17.33,72.56,44.16h0l.48.19.47.21h0c63,26.6,82.18,21.46,82.18,21.46Z"/><path class="cls-3" d="M222,64c4.9-2.64,13.19,5.27,17.71,22.61s-6.41,46-13.19,67.48-3,35.06-1.13,40-3.39,7.91-16.59,1.88-6.41-24.5,6-45.23,23.08-50.56,18.47-67.85S222,64,222,64Z"/><path class="cls-2" d="M226.45,31a15,15,0,1,0,15,15A15,15,0,0,0,226.45,31Zm0,25.59A10.6,10.6,0,1,1,237.05,46,10.6,10.6,0,0,1,226.45,56.63Z"/><path class="cls-4" d="M91.57,0H17.76A17.76,17.76,0,0,0,0,17.76V55.67A17.76,17.76,0,0,0,17.76,73.43H69.05L94.52,98.9V73.43l.13-.28a17.76,17.76,0,0,0,14.68-17.48V17.76A17.76,17.76,0,0,0,91.57,0Z"/><circle class="cls-5" cx="26.67" cy="36.72" r="8.28"/><circle class="cls-5" cx="54.66" cy="36.72" r="8.28"/><circle class="cls-5" cx="82.66" cy="36.72" r="8.28"/><path class="cls-4" d="M285.79,59.87H330.4A10.73,10.73,0,0,1,341.14,70.6V93.52a10.74,10.74,0,0,1-10.74,10.74h-31L284,119.65V104.26l-.08-.18a10.72,10.72,0,0,1-8.87-10.56V70.6A10.73,10.73,0,0,1,285.79,59.87Z"/><circle class="cls-5" cx="325.02" cy="82.06" r="5.01"/><circle class="cls-5" cx="308.09" cy="82.06" r="5.01"/><circle class="cls-5" cx="291.17" cy="82.06" r="5.01"/><path class="cls-4" d="M59.74,182.58a5.86,5.86,0,0,1-4.29-1.84c-27-28.32-12.74-66.84-12.12-68.46a5.92,5.92,0,1,1,11.07,4.21c-.53,1.42-12.11,33.26,9.62,56.08a5.92,5.92,0,0,1-4.28,10Z"/><path class="cls-4" d="M36.35,213a5.93,5.93,0,0,1-4.29-1.84C-13.24,163.59,10.75,98.73,11.79,96a5.92,5.92,0,1,1,11.07,4.21C22.6,100.9.59,160.94,40.64,203a5.91,5.91,0,0,1-.21,8.37A5.85,5.85,0,0,1,36.35,213Z"/><path class="cls-4" d="M231.72,254.8a5.92,5.92,0,0,1-.24-11.84c1.5-.07,35.35-1.89,47.82-30.84a5.92,5.92,0,0,1,10.88,4.68c-15.48,35.93-56.49,37.93-58.23,38Z"/><path class="cls-4" d="M229.1,290.2a5.92,5.92,0,0,1-.23-11.84c.9,0,64.63-3.4,87.57-56.66a5.92,5.92,0,0,1,10.88,4.69c-26,60.32-95.06,63.69-98,63.8Z"/></g></g></svg>