<svg xmlns="http://www.w3.org/2000/svg" viewBox="0 0 18.65 12.52"><defs><style>.cls-1{fill:#f7e2c1;}.cls-2{fill:#e8ad4d;}.cls-3{fill:#efb454;}</style></defs><title>Asset 72</title><g id="Layer_2" data-name="Layer 2"><g id="Layer_1-2" data-name="Layer 1"><polygon class="cls-1" points="0 3.47 5.44 3.47 7.5 0 2.81 0 0 3.47"/><polygon class="cls-2" points="9.33 12.52 5.44 3.47 0 3.47 9.33 12.52"/><polygon class="cls-1" points="13.21 3.47 9.33 12.52 5.44 3.47 13.21 3.47"/><path class="cls-3" d="M13.21,3.47H5.44l.09-.15c.39-.67,2-3.32,2-3.32h3.65s1.59,2.65,2,3.32Z"/><polygon class="cls-1" points="18.66 3.47 13.21 3.47 11.15 0 15.85 0 18.66 3.47"/><polygon class="cls-2" points="9.33 12.52 13.21 3.47 18.66 3.47 9.33 12.52"/><polygon class="cls-2" points="13.21 3.47 5.44 3.47 5.53 3.32 7.5 0 11.15 0 13.13 3.32 13.21 3.47"/></g></g></svg>