<svg xmlns="http://www.w3.org/2000/svg" viewBox="0 0 471.59 353.66"><defs><style>.cls-1{fill:#f7b228;}.cls-2{fill:#fce1b1;}.cls-3{fill:#982ce5;}.cls-4{fill:#e8adf7;}</style></defs><title>Asset 59</title><g id="Layer_2" data-name="Layer 2"><g id="Layer_1-2" data-name="Layer 1"><path class="cls-1" d="M105.46,0H27.11C12.15,0,0,11.84,0,26.43V227.3c0,14.59,12.15,26.43,27.11,26.43h78.35c15,0,27.11-11.84,27.11-26.43V26.43C132.57,11.84,120.43,0,105.46,0Zm18.71,227.3a18.52,18.52,0,0,1-18.71,18.24H27.11A18.52,18.52,0,0,1,8.4,227.3V26.43A18.52,18.52,0,0,1,27.11,8.19h5.42v3.6A5.36,5.36,0,0,0,38,17.07H94.62A5.36,5.36,0,0,0,100,11.79V8.19h5.42a18.52,18.52,0,0,1,18.71,18.24Z"/><path class="cls-2" d="M124.17,26.43V227.3a18.52,18.52,0,0,1-18.71,18.24H27.11A18.52,18.52,0,0,1,8.4,227.3V26.43A18.52,18.52,0,0,1,27.11,8.19h5.42v3.6A5.36,5.36,0,0,0,38,17.07H94.62A5.36,5.36,0,0,0,100,11.79V8.19h5.42A18.52,18.52,0,0,1,124.17,26.43Z"/><path class="cls-3" d="M25.06,156.94c0-.85.64-1.32,2.06-1.32s2.06.49,2.07,1.56h2.35c0-2.17-1.68-3.46-4.39-3.46S22.71,155,22.71,157c0,4.53,6.65,2.49,6.65,5.1,0,.86-.8,1.33-2.19,1.33-1.55,0-2.35-.57-2.35-1.6H22.47c0,2.26,1.69,3.5,4.58,3.5s4.65-1.24,4.65-3.23C31.7,157.38,25.06,159.42,25.06,156.94Z"/><path class="cls-3" d="M38.3,157a2.91,2.91,0,0,0-2.59,1.28v-4.85H33.4v11.78h2.34v-4.54A1.6,1.6,0,0,1,37.43,159a1.4,1.4,0,0,1,1.46,1.59v4.64h2.34V160A2.79,2.79,0,0,0,38.3,157Z"/><path class="cls-3" d="M47.05,157a4,4,0,0,0-4.28,4.2,4,4,0,0,0,4.28,4.1,4,4,0,0,0,4.28-4.18A4,4,0,0,0,47.05,157Zm0,6.42a2,2,0,0,1-1.93-2.25c0-1.38.77-2.29,1.93-2.29s1.92.91,1.92,2.29S48.24,163.42,47.05,163.42Z"/><path class="cls-3" d="M57.89,157a3,3,0,0,0-2.61,1.26l-.05-1.19H53v11.5H55.3v-4.52a2.75,2.75,0,0,0,2.5,1.25c2.26,0,3.71-1.76,3.71-4.28S60,157,57.89,157Zm-.62,6.39a2,2,0,0,1-2-2v-.52a2,2,0,0,1,2-2c1.14,0,1.86.86,1.86,2.21S58.38,163.39,57.27,163.39Z"/><path class="cls-3" d="M68,153.83H63.45v11.38H68a5.69,5.69,0,1,0,0-11.38Zm0,9.49H65.8v-7.6H68c1.94,0,3.33,1.3,3.33,3.8S69.94,163.32,68,163.32Z"/><path class="cls-3" d="M79.23,157A4,4,0,0,0,75,161.2a4,4,0,0,0,4.27,4.1,4,4,0,0,0,4.29-4.18A4,4,0,0,0,79.23,157Zm0,6.42a2,2,0,0,1-1.93-2.25c0-1.38.77-2.29,1.93-2.29s1.92.91,1.92,2.29S80.42,163.42,79.23,163.42Z"/><path class="cls-3" d="M89,157a4,4,0,0,0-4.27,4.2A4,4,0,0,0,89,165.3a4,4,0,0,0,4.29-4.18A4,4,0,0,0,89,157Zm0,6.42a2,2,0,0,1-1.92-2.25c0-1.38.76-2.29,1.92-2.29s1.92.91,1.92,2.29S90.17,163.42,89,163.42Z"/><path class="cls-3" d="M97.2,158.41l0-1.33H94.9v8.13h2.33V161a2,2,0,0,1,2-1.81,1.41,1.41,0,0,1,.58.08l0-2.22a1.54,1.54,0,0,0-.53-.07A2.23,2.23,0,0,0,97.2,158.41Z"/><path class="cls-3" d="M108.64,163.42c-.24,0-.4-.16-.4-.49V160.3c0-2.05-1.29-3.3-3.72-3.3-2.17,0-3.63,1-3.76,2.86h2.11c.08-.7.64-1.13,1.53-1.13,1,0,1.58.56,1.58,1.41v.36h-1.07c-2.28,0-4.38.58-4.38,2.57,0,1.35,1,2.23,2.83,2.23A2.84,2.84,0,0,0,106.1,164h0A1.83,1.83,0,0,0,108,165.3a4.05,4.05,0,0,0,1.19-.17l-.14-1.79A1,1,0,0,1,108.64,163.42ZM106,162.26c0,.65-.75,1.38-2,1.38-.8,0-1.21-.3-1.21-.83,0-.71.73-1.06,2-1.06H106Z"/><path class="cls-3" d="M109.17,154.71a.22.22,0,0,1-.21-.14l-.28-.55a.54.54,0,0,0,.44-.55.56.56,0,0,0-.63-.57h-.73v2h.18V154h.54l.29.56a.38.38,0,0,0,.38.27.32.32,0,0,0,.14,0l0-.15Zm-1.23-.82v-.83h.55a.39.39,0,0,1,.44.41.4.4,0,0,1-.44.42Z"/><path class="cls-3" d="M108.41,152.24a1.65,1.65,0,1,0,1.69,1.65A1.67,1.67,0,0,0,108.41,152.24Zm0,3.2a1.55,1.55,0,1,1,1.59-1.55A1.58,1.58,0,0,1,108.41,155.44Z"/><path class="cls-3" d="M101.35,88a1.13,1.13,0,0,0,.09-.4A1.45,1.45,0,0,0,100.15,86c-2.7-.33-7.69-.68-10-.84a1.93,1.93,0,0,0-1.85,1l-3.17,6.18a2.13,2.13,0,0,1-1.93,1.15c-24.22-.15-41.95,4.86-50,7.71a3.69,3.69,0,0,0-1.58,6,125.06,125.06,0,0,0,14,12.88,5.91,5.91,0,0,0,5,1.13c7-1.57,14.93-2.75,20.67-3.49a1.21,1.21,0,0,1,1.37,1.14,1.19,1.19,0,0,1-.8,1.14,81.49,81.49,0,0,0-18.5,9.39,1.89,1.89,0,0,0-.56,2.54l0,0a1.88,1.88,0,0,0,2.47.66,186.62,186.62,0,0,1,27.76-11.52,2.33,2.33,0,0,0,1.62-2,37.18,37.18,0,0,0,0-4.4,2,2,0,0,0-1.43-1.77h0l-.27,0a89.14,89.14,0,0,0-12-1.12h0c-3.42-.17-7.52-.26-12.18-.14a4.9,4.9,0,0,1-3.61-1.46l-2.77-2.84a1.21,1.21,0,0,1,.38-2,59.3,59.3,0,0,1,17.81-4.65,88.44,88.44,0,0,1,14.29,0A3,3,0,0,0,87.76,99c1.39-2.89,3.12-6.82,4-8.85a2.35,2.35,0,0,1,2.13-1.38c1.88,0,4.37.08,5.9.15A1.64,1.64,0,0,0,101.35,88Z"/><path class="cls-3" d="M59.69,134.77c-1.49-.84-3.79.3-5.12,2.55s-1.21,4.76.29,5.61,3.79-.31,5.12-2.56S61.19,135.61,59.69,134.77Z"/><path class="cls-3" d="M85.07,123.54c-1.5-.84-3.79.3-5.12,2.55s-1.21,4.76.29,5.61,3.79-.31,5.12-2.56S86.56,124.38,85.07,123.54Z"/><path class="cls-3" d="M392.17,134.71,372.78,243.27a18.12,18.12,0,0,1-3.9,8.34,18.84,18.84,0,0,1-14.36,6.61H193.18a18.35,18.35,0,0,1-18.5-17L168,132.69a18.26,18.26,0,0,1,18.5-19.15H373.9a18.73,18.73,0,0,1,17.9,13.32v0A17.36,17.36,0,0,1,392.17,134.71Z"/><path class="cls-1" d="M374.65,295a28.63,28.63,0,0,1-24,12.77h-171a8.4,8.4,0,1,1,0-16.8h171a11.24,11.24,0,0,0,9.54-5.07,10.55,10.55,0,0,0,.8-10.56L353,258.22h1.5a18.84,18.84,0,0,0,14.36-6.61l7.78,16.75A27.17,27.17,0,0,1,374.65,295Z"/><path class="cls-1" d="M471.59,80.21a8.5,8.5,0,0,1-8.62,8.4H428.62a11.09,11.09,0,0,0-8.64,4L391.8,126.86a18.16,18.16,0,0,0-11.95-12.34l26.68-32.4a28.48,28.48,0,0,1,22.09-10.31H463A8.51,8.51,0,0,1,471.59,80.21Z"/><ellipse class="cls-3" cx="195.82" cy="333.33" rx="20.84" ry="20.32"/><ellipse class="cls-3" cx="359" cy="333.33" rx="20.84" ry="20.32"/><rect class="cls-4" x="189.6" y="138.85" width="176.08" height="18.37" rx="3.28" ry="3.28"/><rect class="cls-4" x="189.6" y="176.7" width="140.11" height="18.37" rx="3.28" ry="3.28"/><rect class="cls-4" x="189.6" y="214.54" width="110.43" height="18.37" rx="3.28" ry="3.28"/></g></g></svg>