<svg xmlns="http://www.w3.org/2000/svg" viewBox="0 0 267.3 129.71"><defs><style>.cls-1{fill:#282828;}.cls-2{fill:#ed2f93;}</style></defs><title>Asset 32</title><g id="Layer_2" data-name="Layer 2"><g id="Layer_1-2" data-name="Layer 1"><path class="cls-1" d="M2.25,13.14C2.25,5.44,7.43.64,14,.64s11.8,4.58,11.8,12.29S20.65,25.44,14,25.44,2.25,20.85,2.25,13.14ZM22.67,13c0-6-3.87-9.63-8.63-9.63S5.41,7,5.41,13,9.28,22.67,14,22.67,22.67,19.08,22.67,13Z"/><path class="cls-1" d="M45.09,14.25v11H41.93V14.89c0-3-1.39-4.59-4-4.59a4.45,4.45,0,0,0-4.69,4.8V25.22H30.13V7.82h2.95l.14,2.59A6.48,6.48,0,0,1,38.8,7.64C42.64,7.64,45.09,10,45.09,14.25Z"/><path class="cls-1" d="M55.25,25.12a7.24,7.24,0,0,1-2,.28A3.13,3.13,0,0,1,50,22V0h3.13V21.39a1.06,1.06,0,0,0,1.06,1.17,1.94,1.94,0,0,0,.82-.18Z"/><path class="cls-1" d="M60.65,4.26a2.1,2.1,0,0,1-2.17-2.13,2.17,2.17,0,0,1,4.33,0A2.1,2.1,0,0,1,60.65,4.26ZM59,7.82h3.16v17.4H59Z"/><path class="cls-1" d="M82.28,14.25v11H79.12V14.89c0-3-1.39-4.59-4-4.59a4.45,4.45,0,0,0-4.69,4.8V25.22H67.33V7.82h2.94l.15,2.59A6.46,6.46,0,0,1,76,7.64C79.83,7.64,82.28,10,82.28,14.25Z"/><path class="cls-1" d="M102.46,17.34h-13c.24,3.3,2.13,5.4,5.18,5.4s4.23-1.6,4.55-3h3.16c-.67,3.16-3.09,5.68-7.74,5.68-5.44,0-8.39-3.73-8.39-8.84s3.45-8.92,8.32-8.92,7.92,3.3,7.92,8.92ZM89.53,15H99.3c-.39-3.13-2.1-4.73-4.73-4.73S90,12.11,89.53,15Z"/><path class="cls-2" d="M73.31,39.49a6.92,6.92,0,0,1,3.91-1.19A6.76,6.76,0,0,1,81.75,40a5.61,5.61,0,0,1,1.94,4.5,10.36,10.36,0,0,1-.63,3.15L67.2,90.52A6.33,6.33,0,0,1,64.32,94a9,9,0,0,1-4.61,1.22A8.82,8.82,0,0,1,55.13,94a6.43,6.43,0,0,1-2.84-3.43L42,61.26,31.31,90.52A6.74,6.74,0,0,1,28.4,94a8.69,8.69,0,0,1-4.5,1.22A8.78,8.78,0,0,1,19.33,94a6.35,6.35,0,0,1-2.84-3.43L.55,47.61a9,9,0,0,1-.55-3A5.63,5.63,0,0,1,2.09,40a7.47,7.47,0,0,1,4.85-1.7A7.6,7.6,0,0,1,11,39.45a6.25,6.25,0,0,1,2.65,3.43L24.45,74,35.89,42.88a6.59,6.59,0,0,1,2.56-3.39,6.92,6.92,0,0,1,3.91-1.19,6.7,6.7,0,0,1,3.86,1.19A6.6,6.6,0,0,1,48.74,43L59.47,74.67,70.75,42.88A6.59,6.59,0,0,1,73.31,39.49Z"/><path class="cls-2" d="M101.08,91.66a23.94,23.94,0,0,1-9.67-9.94A31.92,31.92,0,0,1,88,66.62a31.92,31.92,0,0,1,3.39-15.1,23.67,23.67,0,0,1,9.67-9.9,30,30,0,0,1,14.79-3.47,30,30,0,0,1,14.79,3.47,23.5,23.5,0,0,1,9.62,9.9,32.27,32.27,0,0,1,3.35,15.1,31.92,31.92,0,0,1-3.39,15.1,23.92,23.92,0,0,1-9.66,9.94,29.64,29.64,0,0,1-14.71,3.51A29.8,29.8,0,0,1,101.08,91.66Zm24.65-12.07q3.54-4.45,3.54-13t-3.58-12.94a13.21,13.21,0,0,0-19.68,0q-3.56,4.37-3.55,13t3.55,13a13.17,13.17,0,0,0,19.72,0Z"/><path class="cls-2" d="M163.86,91.66a23.92,23.92,0,0,1-9.66-9.94,31.8,31.8,0,0,1-3.39-15.1,31.8,31.8,0,0,1,3.39-15.1,23.65,23.65,0,0,1,9.66-9.9,33.25,33.25,0,0,1,29.58,0,23.44,23.44,0,0,1,9.62,9.9,32.27,32.27,0,0,1,3.35,15.1A31.92,31.92,0,0,1,203,81.72a23.92,23.92,0,0,1-9.66,9.94,32.75,32.75,0,0,1-29.5,0Zm24.65-12.07q3.54-4.45,3.55-13t-3.59-12.94a13.21,13.21,0,0,0-19.68,0q-3.56,4.37-3.55,13t3.55,13a13.17,13.17,0,0,0,19.72,0Z"/><path class="cls-2" d="M216.74,92.73a6.75,6.75,0,0,1-1.73-5V45.56a6.77,6.77,0,0,1,1.73-5,6.77,6.77,0,0,1,5-1.73h15.94a35,35,0,0,1,15.89,3.35,23.67,23.67,0,0,1,10.21,9.58,29.46,29.46,0,0,1,3.55,14.83,30.16,30.16,0,0,1-3.51,14.95,23.18,23.18,0,0,1-10.17,9.58,35.55,35.55,0,0,1-16,3.31H221.71A6.77,6.77,0,0,1,216.74,92.73Zm19.88-9.94q8.13,0,12.19-4t4.06-12.19q0-8.21-4.06-12.15t-12.19-3.94h-7.1V82.79Z"/><path class="cls-2" d="M95.08,104.59s50.25,38.68,102-5.72c0,0-13.08,26.68-51,30.49S95.08,104.59,95.08,104.59Z"/></g></g></svg>