<svg xmlns="http://www.w3.org/2000/svg" viewBox="0 0 130.46 130.46"><defs><style>.cls-1{fill:#fcc5e4;}.cls-2{fill:#7c4018;}.cls-3{fill:#d39a48;}.cls-4{fill:#4d7191;}.cls-5{fill:#6f97b5;}.cls-6{fill:#375b77;}.cls-7{fill:#ed5492;}.cls-8{fill:#d8d8d8;}.cls-9{fill:#bababa;}.cls-10{fill:#cc3e7e;}</style></defs><title>Asset 17</title><g id="Layer_2" data-name="Layer 2"><g id="Layer_1-2" data-name="Layer 1"><circle class="cls-1" cx="65.23" cy="65.23" r="65.23"/><path class="cls-2" d="M86.68,98.24c-.37,1.89-1,15-1,15h-1.1s-1-7.7-2.55-9.54-6.81,1.44-9.61,4.11-4.87,5.43-9.73,5.43H56.35a.64.64,0,1,1,0-1.27,31.65,31.65,0,0,0,8.43-.74,10.61,10.61,0,0,0,3.94-2.63c.82-.79,1.66-1.67,2.49-2.59h0c1.18-1.32,2.31-2.71,3.31-3.94.77-1,1.45-1.82,2-2.47l0-.06C79.14,96.48,85,95,85,95S87,96.35,86.68,98.24Z"/><path class="cls-3" d="M71.22,106h0c-.83.92-1.67,1.8-2.49,2.59,0,0-2.3-3.86-3.76-4.45,0,0,1.52-1.49,2.68-2.47A19.83,19.83,0,0,1,71.22,106Z"/><path class="cls-3" d="M82.61,89.67a7.81,7.81,0,0,0-3.35,3,52.74,52.74,0,0,0-2.72,6.91c-.56.65-1.24,1.51-2,2.47.42-2.23,2-9,5.52-12.17A10.49,10.49,0,0,1,82,88.51S82.54,89.55,82.61,89.67Z"/><path class="cls-4" d="M70.47,92s-2.15,4.35-8.29,7.75c0,0-15-26.46-22.14-35.3a.68.68,0,0,0-1.23.45c1,11.8,4.58,41.47,4.58,41.47-6.81,1.75-11.35,0-11.35,0L22.72,61.55l-1.59-7.71-.62-2.93,0-.09,23.61-8.63,1.46,2.72,3.72,7Z"/><path class="cls-5" d="M27.64,70.71c.25,1.76,1,8.76,1.51,9.68s.18-3.08.55-1.25.55,3.52.89,3.4-.07-2.6.1-2.72,1,2.33,1.22,3.33.87,1,.36-2.32-1.25-9-1.38-7.8-.57,2.33-1.06.38-.61-.92-.62.12S27.35,68.62,27.64,70.71Z"/><path class="cls-5" d="M49.12,63.63c.81,1.58,3.82,7.95,4.59,8.65s-.83-3,.12-1.36,1.67,3.15,2,2.92-.92-2.43-.8-2.6,1.67,1.89,2.24,2.75,1.17.7-.42-2.31S52.7,63.63,53,64.75s.23,2.4-.88.72-.88-.68-.54.31S48.16,61.74,49.12,63.63Z"/><path class="cls-6" d="M26.62,52.67s-.35,6.81-3.9,8.88l-1.59-7.71A34.74,34.74,0,0,0,26.62,52.67Z"/><path class="cls-6" d="M44.09,42.19A57.08,57.08,0,0,1,32.53,48a44.46,44.46,0,0,1-12,2.83Z"/><path class="cls-6" d="M49.27,52c-4.2.28-8.39-4.39-8.39-4.39a51.35,51.35,0,0,0,4.67-2.65Z"/><path class="cls-6" d="M33.57,50.78,37.85,62.5a4.13,4.13,0,0,0,.78-1.81c0-.7-3.74-10.23-3.74-10.23A1.68,1.68,0,0,0,33.57,50.78Z"/><path class="cls-7" d="M94.87,42a6.17,6.17,0,0,0-1.16,2.65S90.8,46,84.26,46s-9.45-1.31-9.45-1.31c-.19-2-3-5-3-5a8.85,8.85,0,0,0-5.09,0c-3.1.76-2-1.61-5.73-5.23s-2.78-3.78,0-5.25,7.12-3.34,9.19-6.41a13.64,13.64,0,0,1,4.26-4.31,24.56,24.56,0,0,0,9.79,12.11A32.38,32.38,0,0,1,94.87,42Z"/><path class="cls-7" d="M107.5,34.49c-3.78,3.62-2.62,6-5.75,5.23a8.79,8.79,0,0,0-5.07,0A60.59,60.59,0,0,0,86.31,28.21c4.62-2.17,7.19-9.69,7.19-9.69l.06-.26a12.44,12.44,0,0,1,4.75,4.57c2.07,3.07,6.41,4.94,9.19,6.41S111.28,30.89,107.5,34.49Z"/><path class="cls-8" d="M96.68,39.72A21.11,21.11,0,0,0,94.87,42a32.38,32.38,0,0,0-10.61-11.4,24.56,24.56,0,0,1-9.79-12.11,4.42,4.42,0,0,1,3.78-.6c.44,3.65,3.94,6.91,6,8.56A62.25,62.25,0,0,1,96.68,39.72Z"/><path class="cls-9" d="M93.56,18.26l-.06.26S90.93,26,86.31,28.21c-.66-.57-1.34-1.15-2-1.73,2.08-1.65,5.54-4.91,6-8.56A4.09,4.09,0,0,1,93.56,18.26Z"/><path class="cls-8" d="M94.87,42V55.5s-.92,1.34-4.81,2.07a24.8,24.8,0,0,1-4.3.45c-.47,0-1,0-1.5,0-8.85,0-10.61-2.29-10.61-2.29V42C87.33,45.13,94.87,42,94.87,42Z"/><path class="cls-7" d="M90.06,57.57v28c-6.8,2.21-16.41-1.89-16.41-1.89-.26-3.78,0-27.89,0-27.89s1.76,2.29,10.61,2.29c.53,0,1,0,1.5,0A24.8,24.8,0,0,0,90.06,57.57Z"/><path class="cls-10" d="M94.87,55.5V82.92a16.32,16.32,0,0,1-4.81,2V57.57C94,56.84,94.87,55.5,94.87,55.5Z"/></g></g></svg>