<svg xmlns="http://www.w3.org/2000/svg" viewBox="0 0 130.46 130.46"><defs><style>.cls-1{fill:#f49af2;}.cls-2{fill:#28ce28;}.cls-3{fill:#178e17;}.cls-4{fill:#58a5a3;}.cls-5{fill:#d9e8e8;}.cls-6{fill:#686868;}.cls-7{fill:#a9dbd8;}.cls-8{fill:#6a269b;}.cls-9{fill:#8b43c9;}</style></defs><title>Asset 13</title><g id="Layer_2" data-name="Layer 2"><g id="Layer_1-2" data-name="Layer 1"><circle class="cls-1" cx="65.23" cy="65.23" r="65.23"/><path class="cls-2" d="M100.84,59.75a10.36,10.36,0,0,1-.73,2.91,9.58,9.58,0,0,1-1.85,2.86,9,9,0,0,1-2.43,1.89C92.58,69.2,88.29,69,84.64,65.88,77.05,59.34,64.8,63,54.28,54.15c-8.12-6.78-8.23-12.34-5.16-17.54A23.32,23.32,0,0,1,51,33.85c.47-.59,1-1.19,1.51-1.78.2-.23.41-.45.62-.66a19.37,19.37,0,0,1,2.61-2.35c14-10.75,29.11,6.89,32.31,12.5,3.45,6,10.68,4.83,12.59,14.66A11.81,11.81,0,0,1,100.84,59.75Z"/><path class="cls-3" d="M98.26,65.52a9,9,0,0,1-2.43,1.89c-3.65-2.32-14-7.23-25.51-12.74a54.34,54.34,0,0,1-21.2-18.06A23.32,23.32,0,0,1,51,33.85C55.5,38.56,62.62,46,65.14,48.3c3.8,3.45,26.91,13.62,32.09,16.56A9.77,9.77,0,0,1,98.26,65.52Z"/><path class="cls-3" d="M100.84,59.75a10.36,10.36,0,0,1-.73,2.91c-6.18-4.9-17.3-14.82-23.42-20.93-4.3-4.31-16.25-8.22-23.52-10.32a19.37,19.37,0,0,1,2.61-2.35c15.67,2.28,31.77,16.86,34.71,21.31C92.4,53.21,97.2,57.09,100.84,59.75Z"/><path class="cls-4" d="M98.44,71.33s6-17.28,9.43-15,1,1.64,6.42,5.53,2.86,3.89,3.76,6.89,4.6,7.4-3.76,7.59-16.8,0-16.8,0Z"/><path class="cls-5" d="M106.07,71.23S96.43,93,80.27,102.16a48.27,48.27,0,0,1-13.73,5.42h0c-10.29,2.23-19.36.15-27.57-3.16,0,0,0-.21.12-.59h0c.68-3,4.31-16.36,14.66-22.54,1.18-.7,2.44-1.38,3.79-2.05h0a71.26,71.26,0,0,1,10.26-4,102.29,102.29,0,0,1,36.28-4.15C104.76,71.12,105.41,71.18,106.07,71.23Z"/><ellipse class="cls-6" cx="52.31" cy="89.7" rx="4.15" ry="2.75"/><path class="cls-4" d="M67.82,75.24a71.26,71.26,0,0,0-10.26,4h0c-1.35.67-2.61,1.35-3.79,2.05,0,0,.68-4.94,6.41-9.77a3,3,0,0,1,3.57,1.24C65,74.45,66.8,74.27,67.82,75.24Z"/><path class="cls-7" d="M106.07,71.23S96.43,93,80.27,102.16a48.27,48.27,0,0,1-13.73,5.42h0c-10.29,2.23-19.36.15-27.57-3.16,0,0,0-.21.12-.59h0l2.77-1s18.75,4,32.77-7.94c8.48-7.19,20.91-17.05,29.46-23.78C104.76,71.12,105.41,71.18,106.07,71.23Z"/><path class="cls-6" d="M39,104.41s-3.73-.71-1.46-1.9,8-3.26,9.2-3.93-1.74,7.4-5,8.3S37.27,105.54,39,104.41Z"/><path class="cls-4" d="M72.06,99.92S80.93,108,84,106.21s.9-2.92,3.48-5S85.53,93.3,72.06,99.92Z"/><path class="cls-4" d="M66.54,107.58h0s3.52-4.63,1.16-7.32S63.2,95,65.22,89.69c1.45-3.84.19-7.27-3.11-9.1a11.6,11.6,0,0,0-4.55-1.35,15.71,15.71,0,0,1,5.84,1.24,6.49,6.49,0,0,1,4.06,4.85c1,6.18-1.69,8.64.23,11.12S72.09,104.89,66.54,107.58Z"/><path class="cls-8" d="M25.74,34.12C23.56,39.05,20,81.6,36.35,83.83s7.31-17.28,5.22-24.47C38.78,49.82,32.59,18.62,25.74,34.12Z"/><path class="cls-3" d="M34.83,34.44s-1.28-4-4.79-5.35c.87-3-.68-6.56-.68-6.56A1.78,1.78,0,0,0,27.77,22a1.39,1.39,0,0,0-1,.8c2.23,2.28,1.95,6.56,1.85,6.63h0a11.43,11.43,0,0,0-4.74,5.94A8.85,8.85,0,0,0,27,33.59a4.52,4.52,0,0,0,.7,1.72,11.76,11.76,0,0,0,2.54-3.17A18.51,18.51,0,0,0,34.83,34.44Z"/><path class="cls-9" d="M26.51,37.18s-2.28,14.46,0,25.55,5.24,9.78,2.84-2.5S28.5,34.12,26.51,37.18Z"/><path class="cls-9" d="M31,73.38c-.87.43-2,2.2.76,6.09s5.87,2.88,4.35,1S32.71,72.51,31,73.38Z"/></g></g></svg>