<svg xmlns="http://www.w3.org/2000/svg" viewBox="0 0 130.46 130.46"><defs><style>.cls-1{fill:#efb40f;}.cls-2{fill:#e8e8e8;}.cls-3{fill:#cc1225;}.cls-4{fill:#494949;}.cls-5{fill:#ef9620;}.cls-6{fill:#9b2d10;}.cls-7{fill:#50bc1d;}.cls-8{fill:#59251b;}.cls-9{fill:#f2dbad;}.cls-10{fill:#636363;}</style></defs><title>Asset 12</title><g id="Layer_2" data-name="Layer 2"><g id="Layer_1-2" data-name="Layer 1"><circle class="cls-1" cx="65.23" cy="65.23" r="65.23"/><path class="cls-2" d="M107.89,43.77v3.55c0,.77-.89,1.5-2.49,2.14-3.58,1.45-10.67,2.42-18.82,2.42s-15.24-1-18.81-2.42c-1.6-.64-2.5-1.37-2.5-2.14V43.77c0-2.53,9.54-4.57,21.31-4.57S107.89,41.24,107.89,43.77Z"/><path class="cls-3" d="M105.4,49.46l-3.6,49.11c0,1.8-6.82,3.26-15.22,3.26s-15.22-1.46-15.22-3.26L67.77,49.46c3.57,1.45,10.67,2.42,18.81,2.42S101.82,50.91,105.4,49.46Z"/><ellipse class="cls-4" cx="86.58" cy="43.41" rx="18.82" ry="3.13"/><path class="cls-5" d="M79.93,85.58l-.24.21L66.92,97.49c-25.27-1.26-44.1-6.11-44.1-11.91,0-2.4,3.24-4.66,8.86-6.53Z"/><path class="cls-6" d="M79.93,92l-13,11.91c-25.27-1.26-44.1-6.11-44.1-11.91a19.56,19.56,0,0,1,0-6.41c0,5.8,18.83,10.65,44.1,11.91l12.77-11.7A6.26,6.26,0,0,1,79.93,92Z"/><ellipse class="cls-6" cx="34.89" cy="83.03" rx="3.49" ry="1.46"/><ellipse class="cls-6" cx="47.95" cy="85.58" rx="3.49" ry="1.46"/><ellipse class="cls-6" cx="38.38" cy="88.27" rx="3.49" ry="1.46"/><ellipse class="cls-6" cx="53.47" cy="91.82" rx="3.49" ry="1.46"/><ellipse class="cls-6" cx="63.74" cy="87.04" rx="5.01" ry="2.09"/><path class="cls-6" d="M27.29,56.87A74.46,74.46,0,0,1,44,54.4a74.46,74.46,0,0,1,16.68,2.47,17.52,17.52,0,0,1-1.89,10.26h0c-2.1,3.69-6.35,7-14.78,7s-12.72-3.31-14.82-7A17.59,17.59,0,0,1,27.29,56.87Z"/><path class="cls-7" d="M61.45,65.34a3.74,3.74,0,0,0-.67.36c-1.56,1.15-1,1.5-3.94,1.33a10.08,10.08,0,0,0-7.46,2.13c-2.21,1.78-6.12,1-8.6-.1s-6-2-8-.79-2.76-.88-4.63-2.39a2.54,2.54,0,0,0-.47-.31c-1.82-.94-4.09.47-3.52-1.56.4-1.42,1.93-2,3-2.23a7.52,7.52,0,0,1,1-.16l22.59-1.33.2,0h.52a29.43,29.43,0,0,1,9.3,1.29,16.26,16.26,0,0,1,1.65.6C67.38,64.21,63.48,64.5,61.45,65.34Z"/><path class="cls-3" d="M29.19,62.19s-2.44.93,0,3,15,4.14,15.94-.74-13.92-3.24-13.92-3.24a15.19,15.19,0,0,0-2.41.94"/><path class="cls-3" d="M48.87,64.13S47.4,65.69,50,66.37s12.5-2.26,11.49-6.2S50,62.72,50,62.72s-1.73,1.69-1.44,1.55"/><path class="cls-7" d="M61.45,58a3.2,3.2,0,0,0-.67.35c-1.56,1.15-1,1.51-3.94,1.34a10,10,0,0,0-7.46,2.13c-2.21,1.77-6.12,1-8.6-.1s-6-2-8-.8-2.76-.88-4.63-2.38a3.26,3.26,0,0,0-.47-.32c-1.82-.93-4.09.47-3.52-1.56.4-1.42,1.93-2,3-2.23a6.5,6.5,0,0,1,1-.15L50.76,53H51a4.52,4.52,0,0,0,.52,0,29.22,29.22,0,0,1,9.3,1.3,16.2,16.2,0,0,1,1.65.59C67.38,56.88,63.48,57.18,61.45,58Z"/><path class="cls-5" d="M60.65,56.43A74.39,74.39,0,0,1,44,58.9a74.46,74.46,0,0,1-16.68-2.47,17.56,17.56,0,0,1,1.89-10.27h0c2.1-3.69,6.35-7,14.78-7s12.72,3.31,14.82,7A17.59,17.59,0,0,1,60.65,56.43Z"/><path class="cls-6" d="M58.79,46.22c-2,.79-3,2.21-4.88,5.35-2.24,3.75-10.41-1.48-13.49-.3s-6.86-1.3-8.05-3.66a2.43,2.43,0,0,0-3.18-1.45c2.1-3.69,6.35-7,14.78-7S56.69,42.51,58.79,46.22Z"/><path class="cls-8" d="M60.78,60.86c-1.53,1.66-6.63,4.37-16.31,4.37S29,64.29,27.7,62a3.46,3.46,0,0,1,0-3.79,3.26,3.26,0,0,1,.47.32c1.87,1.5,2.58,3.63,4.63,2.38s5.49-.25,8,.8,6.39,1.87,8.6.1a10,10,0,0,1,7.46-2.13c2.93.17,2.38-.19,3.94-1.34a3.2,3.2,0,0,1,.67-.35A3.41,3.41,0,0,1,60.78,60.86Z"/><circle class="cls-9" cx="38.09" cy="41.4" r="0.6"/><circle class="cls-9" cx="43.01" cy="42.54" r="0.54"/><circle class="cls-9" cx="47.9" cy="41.95" r="0.55"/><ellipse class="cls-9" cx="52.4" cy="43.12" rx="0.18" ry="0.61"/><circle class="cls-9" cx="43.49" cy="46.56" r="0.48"/><circle class="cls-9" cx="48.73" cy="45.79" r="0.29"/><circle class="cls-9" cx="38.54" cy="45.06" r="0.44"/><circle class="cls-9" cx="45.53" cy="40.45" r="0.35"/><circle class="cls-9" cx="35.72" cy="44.62" r="0.89"/><circle class="cls-9" cx="41.62" cy="49.36" r="0.31"/><circle class="cls-9" cx="50.18" cy="48.61" r="0.44"/><ellipse class="cls-9" cx="54.58" cy="45.28" rx="0.4" ry="0.22"/><path class="cls-10" d="M105,27.74l-1.22,3.69L96.44,29a3.23,3.23,0,0,0-4.09,2.1L90.2,37.91l-1.64,5.2c-.75,0-1.54,0-2.33,0H84.5l1.65-5.3,2.48-7.92a7.13,7.13,0,0,1,9-4.61Z"/></g></g></svg>