<svg xmlns="http://www.w3.org/2000/svg" viewBox="0 0 130.14 130.14"><defs><style>.cls-1{fill:#6eb1f4;}.cls-2{fill:#efb40f;}.cls-3{fill:#fff;}.cls-4{fill:#f77c46;}.cls-5{fill:#af8214;}.cls-6{fill:#f7a4a4;}.cls-7{fill:#c6c6c6;}.cls-8{fill:#dbdbdb;}.cls-9{fill:#ed7070;}.cls-10{fill:#f7e8c4;}.cls-11{fill:#afafaf;}</style></defs><title>Asset 18</title><g id="Layer_2" data-name="Layer 2"><g id="Layer_1-2" data-name="Layer 1"><circle class="cls-1" cx="65.07" cy="65.07" r="65.07"/><path class="cls-2" d="M55.46,53.38a12,12,0,0,1-1.12.91,15.07,15.07,0,0,1-16,1.24,15.26,15.26,0,0,1-4.26-3.38,14.09,14.09,0,0,1-2.4-3.87A10,10,0,0,1,31,45.6c-.84-7.28,5.75-15.5,14-13.6C60.49,35.59,61.39,47.84,55.46,53.38Z"/><circle class="cls-3" cx="42.88" cy="43.69" r="4.15"/><circle cx="42.18" cy="44.38" r="2.27"/><circle class="cls-3" cx="42.77" cy="43.79" r="0.92"/><path class="cls-4" d="M39.42,55.83c-.41-.12-.77-.23-1.11-.3-4.24-1-3.64.85-7.47,1.14a18.34,18.34,0,0,1-2.34,0c-7-.48-13.59-4.75-9.49-6.8A89.55,89.55,0,0,1,31,45.6h0c6.61,2.13,8.81,4.59,9.31,6.56A4.27,4.27,0,0,1,39.42,55.83Z"/><path class="cls-2" d="M71.64,83.68c-20.39,6.88-49.78-4-48.6-14.36a18,18,0,0,1,7.8-12.65,8.8,8.8,0,0,0,3.63-1.09c.84-.36,1.76-.55,3.84,0a15.07,15.07,0,0,0,16-1.24,12,12,0,0,0,1.12-.91,97.21,97.21,0,0,0,23.77,6.83,8.13,8.13,0,0,1,1.42.3C89.21,62.94,91,77.16,71.64,83.68Z"/><path class="cls-5" d="M80.65,60.51a36.13,36.13,0,0,1-4.27,4.84c-12.8,12.33-31.45,7.59-38.88,3.16-5.38-3.21-4.11-9.59-3-12.93.84-.36,1.76-.55,3.84,0a15.07,15.07,0,0,0,16-1.24,12,12,0,0,0,1.12-.91,97.21,97.21,0,0,0,23.77,6.83A8.13,8.13,0,0,1,80.65,60.51Z"/><path class="cls-6" d="M112.35,62.81c-.6,1.34-6.59,0-13.39-3S87.12,53.3,87.71,52s6.59,0,13.4,3S112.94,61.46,112.35,62.81Z"/><path class="cls-7" d="M103,81.34,97.1,94.8S95,99.52,90,98.18l-.09,0c-.73-.21-1.52-.46-2.34-.75l-.8-.27c-.77-.29-1.58-.61-2.41-1l-.57-.25-.6-.25-.58-.26L82,95.16c-.81-.37-1.59-.75-2.32-1.13l-.74-.4-.6-.33c-.58-.32-1.12-.64-1.62-1-4.39-2.82-2.32-7.54-2.32-7.54l5.93-13.46c-.55,1.24,4.09,4.48,10.36,7.24S102.48,82.58,103,81.34Z"/><path class="cls-8" d="M109.69,66.21,103,81.34c-.54,1.24-6.07,0-12.33-2.75s-10.91-6-10.36-7.24L87,56.22c-.54,1.24,4.09,4.48,10.36,7.24S109.14,67.45,109.69,66.21Z"/><path class="cls-9" d="M112.35,62.81l-2.15,4.88c-.59,1.34-6.59,0-13.39-3S85,58.18,85.56,56.84L87.71,52c-.59,1.34,4.44,4.86,11.25,7.86S111.75,64.15,112.35,62.81Z"/><path class="cls-10" d="M109.24,49.68c-2.73-5,1.94-7,.86-10.27a2.66,2.66,0,0,0-3.61-1.59c-3.17,1.43-1.44,6.18-7,7.57-6.37,1.59-9.2,7.7-9.2,7.7,3.34,2.92,9.27,5.36,9.27,5.36s5.8,2.73,10.21,3.22C109.77,61.67,112.37,55.46,109.24,49.68Z"/><path class="cls-11" d="M103,81.34c-.54,1.24-6.07,0-12.33-2.75s-10.91-6-10.36-7.24,6.07,0,12.34,2.75S103.57,80.1,103,81.34Z"/></g></g></svg>