<svg xmlns="http://www.w3.org/2000/svg" viewBox="0 0 130.46 130.46"><defs><style>.cls-1{fill:#31af46;}.cls-2{fill:#fff;}.cls-3{fill:#66c0ed;}.cls-4{fill:#358daf;}.cls-5{fill:#333;}.cls-6{fill:#afafaf;}.cls-7{fill:#152238;}.cls-8{fill:#591137;opacity:0.5;}.cls-9{fill:#d83a94;opacity:0.2;}</style></defs><title>Asset 16</title><g id="Layer_2" data-name="Layer 2"><g id="Layer_1-2" data-name="Layer 1"><circle class="cls-1" cx="65.23" cy="65.23" r="65.23"/><ellipse class="cls-2" cx="46.18" cy="49.15" rx="20.18" ry="23.79"/><path class="cls-3" d="M65,89.76s-.56,3.72-18.8,3.72-18.81-3.72-18.81-3.72a3.67,3.67,0,0,1,.1-1.23,1.89,1.89,0,0,1,.43-.86c.68-.77,13.7-6.62,16.19-8.92a13.87,13.87,0,0,0,2.19-3.65,11.27,11.27,0,0,0,1.42,0,18.2,18.2,0,0,0,5.52-1.19,19.81,19.81,0,0,0,4.31-2.29,36.24,36.24,0,0,0-.84,4.29C56.28,80.39,62.21,86.05,64,88A2.26,2.26,0,0,1,65,89.76Z"/><path class="cls-4" d="M68,47.87C67.1,33.54,56.67,22.5,44.64,23.21S23.55,36.11,24.4,50.44c.8,13.75,10.47,24.47,21.88,24.66a11.27,11.27,0,0,0,1.42,0,19,19,0,0,0,9.83-3.48C64.27,66.87,68.54,57.9,68,47.87ZM59.08,65.58a16.86,16.86,0,0,1-11.17,5.75c-.14,0-.28,0-.43,0-10.29.61-19.24-8.85-20-21.13s7.05-22.72,17.36-23.33,19.25,8.85,20,21.13A24.1,24.1,0,0,1,59.08,65.58Z"/><path class="cls-3" d="M44.09,46.6S37,41.28,39.47,32.87s10.66-3.31,12.2-1.3S48,42.3,49.06,46.6a3.94,3.94,0,0,1,0,2.41c-.66,1.67-2.88,1.38-2.88,1.38Z"/><path class="cls-3" d="M46.69,48c.36,0,11,3.08,13.5,5.69s.35,10.53-5,11.83-4.14-8-5.92-9.82-3.85-6.57-3.85-6.57Z"/><path class="cls-3" d="M44.68,51.57s-3.08,14.68-7.1,13.14-7.34-7.45-7-11.24,9.94-4,13.61-5.45S44.68,51.57,44.68,51.57Z"/><path class="cls-4" d="M65,89.76s-.56,3.72-18.8,3.72-18.81-3.72-18.81-3.72a3.67,3.67,0,0,1,.1-1.23c8.71,3.7,28.1,2.7,30,2s-3.2-3.89-4.74-7.44c-1.08-2.49-.25-6.75.49-9.18a19.81,19.81,0,0,0,4.31-2.29,36.24,36.24,0,0,0-.84,4.29C56.28,80.39,62.21,86.05,64,88A2.26,2.26,0,0,1,65,89.76Z"/><ellipse class="cls-4" cx="46.18" cy="49.15" rx="4.18" ry="4.98" transform="translate(-2.81 2.8) rotate(-3.37)"/><ellipse class="cls-3" cx="45.15" cy="49.15" rx="2.63" ry="3.13" transform="translate(-2.81 2.74) rotate(-3.37)"/><rect class="cls-5" x="54.53" y="67.96" width="51.58" height="31.64" rx="4.31" ry="4.31"/><path class="cls-5" d="M75.56,79.89,89,74.63,83,68l-1.47-3.6A3.86,3.86,0,0,0,78,62H69.16a3.86,3.86,0,0,0-3.56,2.39L64.13,68l-6,6.67,13.47,5.26v1.54l2-.77,2,.77Z"/><path class="cls-6" d="M86.69,74.87a11,11,0,1,0,2.54,15.28A11,11,0,0,0,86.69,74.87Zm-1.3,1.83a8.71,8.71,0,1,1-12.15,2A8.72,8.72,0,0,1,85.39,76.7Z"/><rect class="cls-6" x="92.03" y="71.7" width="8.98" height="4.22" rx="1" ry="1"/><path class="cls-6" d="M69,89.12h0s-1.94,1.08-2.52-.78,1.37-2.18,1.54-2.21A12.86,12.86,0,0,0,69,89.12Z"/><circle class="cls-7" cx="80.32" cy="83.78" r="8.37"/><circle class="cls-8" cx="81" cy="83.1" r="6.43"/><circle class="cls-9" cx="77.26" cy="86.84" r="3.06"/><circle class="cls-2" cx="85.03" cy="79.07" r="0.95"/></g></g></svg>