<svg xmlns="http://www.w3.org/2000/svg" viewBox="0 0 130.46 130.46"><defs><style>.cls-1{fill:#efb40f;}.cls-2{fill:#d3d3d3;}.cls-3{fill:#93581d;}.cls-4{fill:#bc8f6d;}.cls-5{fill:#d38c57;}</style></defs><title>Asset 19</title><g id="Layer_2" data-name="Layer 2"><g id="Layer_1-2" data-name="Layer 1"><circle class="cls-1" cx="65.23" cy="65.23" r="65.23"/><polygon class="cls-2" points="69.14 65.92 75.78 18.55 78.5 18.55 70.19 67.51 69.14 65.92"/><polygon class="cls-2" points="63.01 65.15 66.26 21.73 63.69 21.73 61.27 66.6 63.01 65.15"/><polygon class="cls-2" points="76.97 66.89 88.02 23.09 90.59 23.09 77.89 67.51 76.97 66.89"/><path class="cls-3" d="M59.31,29.58C59.21,29,57.31,16.44,77,17s16.19,13.6,16.19,13.6-1.51,7-6.88,7.51c0,0-1.13-6.75-10.65-8.26s-12.69,5.72-12.69,5.72S60.07,34.27,59.31,29.58Z"/><path class="cls-4" d="M52.36,77.93V93.25a.91.91,0,0,0,.63.87h0a.91.91,0,0,0,1.19-.77L56.1,75.78Z"/><path class="cls-5" d="M88,73.32v26.82a.74.74,0,0,1-.74.74l-.16,0a.73.73,0,0,1-.58-.67L84.79,77.13a1.5,1.5,0,0,0-2.24-1.2L73.06,81.3a4.78,4.78,0,0,0-2.44,4l-1.06,26.82a1.37,1.37,0,0,1-2.73.07l-2.3-25a4.28,4.28,0,0,0-3.71-3.86l-19.3-2.53a2.76,2.76,0,0,0-3.08,2.32l-3.59,24.25a1.22,1.22,0,0,1-1.74.94,1.26,1.26,0,0,1-.71-1.21l1.67-24.61a13.8,13.8,0,0,1,3.56-8.33,13.49,13.49,0,0,1,3.91-3l10-5.14a13.31,13.31,0,0,1,7.75-1.37l23.69,3a5.74,5.74,0,0,1,5,5.68Z"/><path class="cls-3" d="M85.94,68.91c-4.2,1.21-13.38,7.27-17.75,8.52s-30.56-3.22-30.56-3.22a13.49,13.49,0,0,1,3.91-3l10-5.14a13.31,13.31,0,0,1,7.75-1.37l23.69,3A5.68,5.68,0,0,1,85.94,68.91Z"/></g></g></svg>