<svg xmlns="http://www.w3.org/2000/svg" viewBox="0 0 42.52 48.57"><defs><style>.cls-1{fill:#777;}</style></defs><title>Asset 35</title><g id="Layer_2" data-name="Layer 2"><g id="Layer_1-2" data-name="Layer 1"><path class="cls-1" d="M38,29.76c.21-8.65,4.18-20-6.13-24.36a3.25,3.25,0,0,0,.62-1.28A3.34,3.34,0,1,0,26,2.57,3.25,3.25,0,0,0,26,4C14.82,3.19,13.23,15.15,9.51,23,5.48,31.42.88,30,.88,30L0,33.72s5.32,6.08,19.73,9.52c.53.13,1,.24,1.55.35A5.35,5.35,0,0,0,31.7,44.87c6.57.14,9.94-1.22,9.94-1.22L42.52,40S37.79,39.13,38,29.76Z"/></g></g></svg>