<svg xmlns="http://www.w3.org/2000/svg" viewBox="0 0 342.71 80.13"><defs><style>.cls-1{fill:#982ce5;}</style></defs><title>Asset 40</title><g id="Layer_2" data-name="Layer 2"><g id="Layer_1-2" data-name="Layer 1"><path class="cls-1" d="M101.25,32.1c0-2.46,1.84-3.82,5.85-3.82,3.72,0,5.84,1.4,5.89,4.54h6.67c0-6.33-4.78-10.09-12.47-10.09-7.53,0-12.61,3.86-12.61,9.51,0,13.2,18.9,7.25,18.9,14.84,0,2.51-2.27,3.87-6.24,3.87-4.39,0-6.67-1.65-6.67-4.64H93.91c0,6.57,4.78,10.19,13,10.19,7.88,0,13.2-3.62,13.2-9.42C120.1,33.4,101.25,39.35,101.25,32.1Z"/><path class="cls-1" d="M138.84,32.29A8.24,8.24,0,0,0,131.5,36V21.9h-6.57V56.21h6.67V43A4.58,4.58,0,0,1,136.38,38c2.71,0,4.15,1.84,4.15,4.64V56.21h6.63V41C147.16,36.16,144.26,32.29,138.84,32.29Z"/><path class="cls-1" d="M163.68,32.29c-7.25,0-12.13,5.08-12.13,12.23s4.88,11.93,12.13,11.93,12.18-5.07,12.18-12.17S171,32.29,163.68,32.29Zm0,18.7c-3.29,0-5.46-2.65-5.46-6.57s2.17-6.67,5.46-6.67,5.46,2.66,5.46,6.67S167.06,51,163.68,51Z"/><path class="cls-1" d="M194.46,32.29A8.31,8.31,0,0,0,187.07,36l-.15-3.48h-6.43V66h6.62V52.83c1.31,2.18,3.63,3.62,7.11,3.62,6.42,0,10.53-5.12,10.53-12.46C204.75,36.5,200.45,32.29,194.46,32.29ZM192.72,50.9a5.65,5.65,0,0,1-5.61-5.8V43.6a5.66,5.66,0,0,1,5.66-5.75c3.23,0,5.26,2.51,5.26,6.43S195.86,50.9,192.72,50.9Z"/><path class="cls-1" d="M223.11,23.06H210.26V56.21h12.85c9.62,0,16.19-6.13,16.19-16.57S232.68,23.06,223.11,23.06Zm0,27.64h-6.18V28.57h6.18c5.51,0,9.47,3.77,9.47,11.07S228.67,50.7,223.11,50.7Z"/><path class="cls-1" d="M255.05,32.29c-7.25,0-12.13,5.08-12.13,12.23s4.88,11.93,12.13,11.93,12.18-5.07,12.18-12.17S262.4,32.29,255.05,32.29Zm0,18.7c-3.29,0-5.46-2.65-5.46-6.57s2.17-6.67,5.46-6.67,5.46,2.66,5.46,6.67S258.43,51,255.05,51Z"/><path class="cls-1" d="M282.74,32.29c-7.25,0-12.13,5.08-12.13,12.23s4.88,11.93,12.13,11.93,12.17-5.07,12.17-12.17S290.08,32.29,282.74,32.29Zm0,18.7c-3.29,0-5.46-2.65-5.46-6.57s2.17-6.67,5.46-6.67,5.46,2.66,5.46,6.67S286.12,51,282.74,51Z"/><path class="cls-1" d="M306.08,36.4l-.15-3.87h-6.38V56.21h6.62V44a5.6,5.6,0,0,1,5.8-5.27,4,4,0,0,1,1.64.24l.05-6.47a4.22,4.22,0,0,0-1.5-.2A6.35,6.35,0,0,0,306.08,36.4Z"/><path class="cls-1" d="M338.55,51c-.68,0-1.11-.48-1.11-1.45V41.91c0-6-3.68-9.62-10.59-9.62-6.13,0-10.29,3-10.68,8.31h6c.24-2,1.83-3.28,4.34-3.28,3,0,4.5,1.64,4.5,4.11v1.06H328c-6.47,0-12.41,1.69-12.41,7.49,0,3.91,2.8,6.47,8,6.47,5,0,7-2.36,7.78-3.81h0a5.19,5.19,0,0,0,5.36,3.81,11.16,11.16,0,0,0,3.38-.48l-.39-5.22A2.84,2.84,0,0,1,338.55,51ZM331,47.61c0,1.89-2.13,4-5.61,4-2.27,0-3.43-.87-3.43-2.41,0-2.08,2.08-3.1,5.61-3.1H331Z"/><path class="cls-1" d="M340.06,25.63c-.19,0-.4-.06-.58-.42l-.8-1.61A1.51,1.51,0,0,0,339.91,22a1.61,1.61,0,0,0-1.78-1.66h-2.07v5.69h.5V23.66h1.53l.83,1.63c.27.54.53.81,1.09.81a1.68,1.68,0,0,0,.4-.06l-.05-.45A.91.91,0,0,1,340.06,25.63Zm-3.5-2.4V20.81h1.57a1.21,1.21,0,1,1,0,2.42Z"/><path class="cls-1" d="M337.9,18.42a4.81,4.81,0,1,0,4.81,4.81A4.81,4.81,0,0,0,337.9,18.42Zm0,9.33a4.52,4.52,0,1,1,4.52-4.52A4.53,4.53,0,0,1,337.9,27.75Z"/><path class="cls-1" d="M95.23,3.92a1.48,1.48,0,0,0,.13-.55,2,2,0,0,0-1.73-2.19C90,.71,83.27.22,80.12,0a2.58,2.58,0,0,0-2.5,1.42L73.36,10a2.91,2.91,0,0,1-2.6,1.6c-32.61-.22-56.47,6.7-67.36,10.63a5.15,5.15,0,0,0-2.12,8.24A169.85,169.85,0,0,0,20.05,48.21a7.85,7.85,0,0,0,6.73,1.57C36.13,47.61,46.86,46,54.59,45a1.63,1.63,0,0,1,.78,3.15,108.22,108.22,0,0,0-24.91,13,2.64,2.64,0,0,0-.75,3.5l0,0a2.49,2.49,0,0,0,3.33.92A249,249,0,0,1,70.44,49.63a3.15,3.15,0,0,0,2.17-2.8,51.15,51.15,0,0,0,.07-6.08,2.69,2.69,0,0,0-1.92-2.44h0l-.37-.08a120.37,120.37,0,0,0-16.12-1.54h0c-4.6-.24-10.12-.35-16.38-.19a6.46,6.46,0,0,1-4.86-2l-3.73-3.91a1.68,1.68,0,0,1,.51-2.69,77.7,77.7,0,0,1,24-6.42A116.15,116.15,0,0,1,73,21.4a4,4,0,0,0,4-2.28c1.87-4,4.2-9.42,5.39-12.22A3.1,3.1,0,0,1,85.19,5c2.54,0,5.89.1,8,.19A2.15,2.15,0,0,0,95.23,3.92Z"/><path class="cls-1" d="M39.17,68.48c-2-1.16-5.1.42-6.89,3.53s-1.62,6.57.39,7.74,5.1-.42,6.89-3.53S41.18,69.64,39.17,68.48Z"/><path class="cls-1" d="M73.33,53c-2-1.16-5.1.42-6.9,3.53s-1.62,6.57.39,7.73,5.1-.42,6.9-3.53S75.34,54.14,73.33,53Z"/></g></g></svg>