<svg xmlns="http://www.w3.org/2000/svg" viewBox="0 0 645.32 272.35"><defs><style>.cls-1{font-size:35.48px;font-family:LotaGrotesque-Regular, Lota Grotesque;}.cls-1,.cls-5{fill:#982ce5;}.cls-2{letter-spacing:-0.02em;}.cls-3{letter-spacing:0em;}.cls-4{fill:#d96cef;}.cls-6{fill:#f7b228;}.cls-7{fill:#ce8d1b;}.cls-8{fill:#fff;}.cls-9{fill:#751fc1;}</style></defs><title>Asset 52</title><g id="Layer_2" data-name="Layer 2"><g id="Layer_1-2" data-name="Layer 1"><text class="cls-1" transform="translate(185.68 54.56)">40<tspan class="cls-2" x="42.25" y="0">0,</tspan><tspan class="cls-3" x="70.92" y="0">000 / 60</tspan><tspan class="cls-2" x="210.27" y="0">0,</tspan><tspan class="cls-3" x="238.94" y="0">000</tspan></text><rect class="cls-4" x="185.68" y="70.81" width="435.87" height="22.6" rx="4.46" ry="4.46"/><rect class="cls-5" x="185.68" y="69.99" width="334.82" height="23.42" rx="4.46" ry="4.46"/><polygon class="cls-5" points="0 175.61 12.07 198.28 0 220.95 319.75 220.95 318.21 198.28 319.75 175.61 0 175.61"/><polygon class="cls-5" points="645.32 175.61 325.57 175.61 327.11 198.28 325.57 220.95 645.32 220.95 633.25 198.28 645.32 175.61"/><path class="cls-6" d="M92.76,0a57.54,57.54,0,1,0,57.53,57.55A57.55,57.55,0,0,0,92.76,0Zm0,102.22a44.67,44.67,0,1,1,44.67-44.67A44.69,44.69,0,0,1,92.76,102.22Z"/><path class="cls-6" d="M394.53,198.3a74.07,74.07,0,1,1-74.08-74.09A74.09,74.09,0,0,1,394.53,198.3Z"/><circle class="cls-7" cx="92.76" cy="57.55" r="44.67" transform="translate(26.36 144.19) rotate(-84.35)"/><polygon class="cls-8" points="92.75 29.27 101.94 47.88 122.48 50.86 107.62 65.35 111.12 85.81 92.75 76.15 74.38 85.81 77.89 65.35 63.03 50.86 83.57 47.88 92.75 29.27"/><path class="cls-9" d="M299.56,175.9,294,170.34h-3.5s-4.73-6.45-14.29-4.67S260,178.12,263.76,190.13s14.45,25.35,30.69,22.23,18.67,11.79,14,12.68c0,0,0-4.67-4.44-3.56s-4,6-.67,8.23A9.92,9.92,0,0,0,316.68,227c3.56-5.11,0-8.23,0-8.23s-6-13.12-22.46-8.89-32.52-19.54-24.35-32,25.24.44,25,1.11S299.56,175.9,299.56,175.9Z"/><path class="cls-9" d="M341.36,175.9l5.56-5.56h3.5s4.73-6.45,14.29-4.67,16.23,12.45,12.45,24.46-14.45,25.35-30.68,22.23-18.68,11.79-14,12.68c0,0,0-4.67,4.45-3.56s4,6,.66,8.23A9.92,9.92,0,0,1,324.24,227c-3.56-5.11,0-8.23,0-8.23s6-13.12,22.46-8.89,32.52-19.54,24.35-32-25.24.44-25,1.11S341.36,175.9,341.36,175.9Z"/><path class="cls-5" d="M351.4,165.2a4.12,4.12,0,0,0-4.22-4.2H293.75a4.11,4.11,0,0,0-4.22,4.2,3.12,3.12,0,0,0,1.58,2.69s-4.45,13.57,2.89,24.24,17.34,13.12,19.79,17.57.89,14.23,0,18.23-13.12,11.56-13.12,11.56H296a2,2,0,0,0,0,4h48.92a2,2,0,1,0,0-4h-4.67s-12.23-7.57-13.12-11.56-2.44-13.79,0-18.23,12.45-6.9,19.79-17.57,2.89-24.24,2.89-24.24A3.15,3.15,0,0,0,351.4,165.2Z"/><path class="cls-4" d="M296.45,167.67h41.36v2.45H307.56s-8.44,4.44-1.33,16.67,11.61,16,12,21.13-3.8-3.93-10.92-9.64S291.33,179.9,296.45,167.67Z"/><path class="cls-4" d="M307.34,239.86h6.08s1.26-4.3,1.81-6.37-1.37-2.08-2.85,0S307.34,239.86,307.34,239.86Z"/></g></g></svg>