<svg xmlns="http://www.w3.org/2000/svg" viewBox="0 0 42.52 48.57"><defs><style>.cls-1{fill:#777;}</style></defs><title>Asset 64</title><g id="Layer_2" data-name="Layer 2"><g id="Layer_1-2" data-name="Layer 1"><path class="cls-1" d="M24.93,8l.76,0,2.41.17,2.24.94c4.94,2.07,5.05,6.06,4.14,14.68-.21,1.94-.42,4-.47,5.89-.13,5.49,1.21,8.88,2.83,11a34.11,34.11,0,0,1-4.21.25h-.84l-3-.06-.91,2.83a1.35,1.35,0,0,1-2.63-.32l-.21-3-2.94-.63-1.46-.33a45.34,45.34,0,0,1-15-6.17c2.37-1.13,5.11-3.55,7.47-8.5.83-1.75,1.55-3.64,2.24-5.47C18.26,11.56,20.15,8,24.93,8M29.25,0A3.33,3.33,0,0,0,26,2.57,3.25,3.25,0,0,0,26,4c-.35,0-.7,0-1,0C14.71,4,13.11,15.4,9.51,23c-3,6.38-6.41,7.17-7.88,7.17A2.6,2.6,0,0,1,.88,30L0,33.72s5.32,6.08,19.73,9.52c.53.13,1,.24,1.55.35A5.35,5.35,0,0,0,31.7,44.87h.93c6,0,9-1.23,9-1.23L42.52,40S37.79,39.13,38,29.76c.21-8.65,4.18-20-6.13-24.36a3.25,3.25,0,0,0,.62-1.28A3.34,3.34,0,0,0,30,.09,3.44,3.44,0,0,0,29.25,0Z"/></g></g></svg>