<svg xmlns="http://www.w3.org/2000/svg" viewBox="0 0 48.43 48.43"><defs><style>.cls-1{fill:#982ce5;}</style></defs><title>Asset 67</title><g id="Layer_2" data-name="Layer 2"><g id="Layer_1-2" data-name="Layer 1"><path class="cls-1" d="M37,4a7.43,7.43,0,0,1,7.43,7.43V37A7.43,7.43,0,0,1,37,44.43H11.43A7.43,7.43,0,0,1,4,37V11.43A7.43,7.43,0,0,1,11.43,4H37m0-4H11.43A11.43,11.43,0,0,0,0,11.43V37A11.43,11.43,0,0,0,11.43,48.43H37A11.43,11.43,0,0,0,48.43,37V11.43A11.43,11.43,0,0,0,37,0Z"/><path class="cls-1" d="M16.25,26.5H10.61L9.44,29.74H7.78L12.49,17h1.88l4.71,12.77H17.42Zm-.54-1.45-2.27-6.26-2.29,6.26Z"/><path class="cls-1" d="M29.57,25.07c0,2.81-1.71,4.76-4.26,4.76a3.27,3.27,0,0,1-3-1.49v5.12H20.68V20.62h1.6l0,1.52a3.48,3.48,0,0,1,3.1-1.61C27.9,20.53,29.57,22.29,29.57,25.07Zm-1.67,0c0-1.93-1-3.18-2.66-3.18a2.93,2.93,0,0,0-2.92,3v.41a2.91,2.91,0,0,0,2.88,3.07C26.84,28.43,27.9,27.08,27.9,25.1Z"/><path class="cls-1" d="M40.65,25.07c0,2.81-1.71,4.76-4.26,4.76a3.29,3.29,0,0,1-3-1.49v5.12H31.75V20.62h1.6l0,1.52a3.5,3.5,0,0,1,3.11-1.61C39,20.53,40.65,22.29,40.65,25.07ZM39,25.1c0-1.93-1-3.18-2.66-3.18a2.93,2.93,0,0,0-2.92,3v.41a2.91,2.91,0,0,0,2.88,3.07C37.91,28.43,39,27.08,39,25.1Z"/></g></g></svg>