<svg xmlns="http://www.w3.org/2000/svg" viewBox="0 0 419.53 294.41"><defs><style>.cls-1{fill:#f7b228;}.cls-2{fill:#513b3b;}.cls-3{fill:#982ce5;}.cls-4{fill:#751fc1;}.cls-5{fill:#d96cef;}.cls-6{fill:#e8adf7;}</style></defs><title>Asset 49</title><g id="Layer_2" data-name="Layer 2"><g id="Layer_1-2" data-name="Layer 1"><rect class="cls-1" y="76.61" width="150.94" height="14.93" rx="2.75" ry="2.75"/><rect class="cls-1" y="261.17" width="150.94" height="14.93" rx="2.75" ry="2.75"/><rect class="cls-2" x="9.5" y="91.54" width="8.99" height="169.33"/><rect class="cls-2" x="132.45" y="91.54" width="8.99" height="169.33" transform="translate(273.89 352.41) rotate(-180)"/><path class="cls-1" d="M29.72,147.91s0,0,0,0S29.72,148,29.72,147.91Z"/><path class="cls-3" d="M119.07,117.51v0c0,.19,0,1.39-.08,3.24,0,3.17-.17,8.26-.31,13.9a57.32,57.32,0,0,1-10,15.57c-18,19.68-23.55,15.19-24,24.58-3,.92-4.93,1.53-4.93,1.53v38.13a3.8,3.8,0,0,1-7.6,0V176.36l-1-1.8-3.61-6.66s-8.43-4.8-17.33-9.7a111.63,111.63,0,0,1-8-7.95,59.85,59.85,0,0,1-11.09-18.08c.59-6.68,1.1-12.92,1.1-12.92S61.44,133,75.48,132.38,119.07,117.51,119.07,117.51Z"/><path class="cls-3" d="M27.63,258.9v-9.52S66,226.53,75.47,226.53,123,248.47,123,249.38v9.52Z"/><path class="cls-4" d="M119.07,117.51v0c0,.19,0,1.39-.08,3.24-11.31,7.56-33.15,21.38-43.51,22.26-14.33,1.22-43.22-23.79-43.22-23.79S61.44,133,75.48,132.38,119.07,117.51,119.07,117.51Z"/><path class="cls-1" d="M108.68,202.45C89.79,181.8,84.6,187.77,84.6,176.36a14.65,14.65,0,0,1,.05-1.53c.48-9.39,6.07-4.9,24-24.58a57.32,57.32,0,0,0,10-15.57C127,116.17,126,96.43,126,96.43l0-4.9H24.85l0,4.9s-.83,18,6.29,35.74a59.85,59.85,0,0,0,11.09,18.08,111.63,111.63,0,0,0,8,7.95c12.46,11.26,16.11,8.53,16.11,18.16,0,11.41-5.16,5.44-24.06,26.09s-17.38,53.82-17.38,53.82l0,4.9H126.09l0-4.9S127.58,223.12,108.68,202.45Zm12.51,53.6,0,.12v.13H29.75l0-.13,0-.12c0-.32-1.15-31.45,16.11-50.31,8.17-9,13.58-12.61,17.16-15,5.22-3.51,8.17-5.93,8.17-14.34,0-.63,0-1.24,0-1.8-.41-7-3.29-9.29-8.12-12.56-3.58-2.41-9-6.09-17.16-15-7.41-8.12-11.43-18.5-13.6-27.71a94.46,94.46,0,0,1-2.51-22.6l0-.12,0-.13h91.41v.13l0,.12a93.52,93.52,0,0,1-2.12,20.86v0c-2.07,9.63-6.12,20.82-14,29.42-8.17,8.95-13.58,12.63-17.17,15-5.21,3.54-8.19,5.93-8.19,14.36s3,10.83,8.19,14.34c3.59,2.43,9,6.09,17.17,15C122.33,224.6,121.19,255.73,121.19,256.05Z"/><rect class="cls-5" x="197.26" y="23.5" width="182.83" height="247.42" rx="9.37" ry="9.37" transform="translate(84.92 -104.76) rotate(24.02)"/><path class="cls-3" d="M405,71.61A8.64,8.64,0,0,1,409.36,83L321.63,279.87a8.64,8.64,0,0,1-11.4,4.37L172.37,222.8A8.65,8.65,0,0,1,168,211.4L255.72,14.54a8.64,8.64,0,0,1,11.4-4.37L405,71.61m3-6.68L270.1,3.49A16,16,0,0,0,249,11.57L161.31,208.42a16,16,0,0,0,8.08,21.06l137.87,61.44a15.94,15.94,0,0,0,21.05-8.08L416,86A15.94,15.94,0,0,0,408,64.93Z"/><rect class="cls-4" x="343.01" y="82.3" width="6.91" height="45.71" transform="translate(109.39 378.81) rotate(-65.98)"/><rect class="cls-4" x="313.49" y="151.92" width="6.91" height="38.95" transform="translate(31.38 391.13) rotate(-65.98)"/><polygon class="cls-4" points="303.59 82.27 285.87 74.37 293.76 56.65 287.46 53.84 279.56 71.56 261.84 63.66 259.03 69.97 276.75 77.87 268.85 95.59 275.16 98.4 283.06 80.68 300.78 88.58 303.59 82.27"/><polygon class="cls-4" points="274.36 137.4 271.89 130.96 253.78 137.9 246.83 119.79 240.38 122.26 247.33 140.37 229.21 147.32 231.69 153.77 249.8 146.82 256.75 164.94 263.19 162.47 256.25 144.35 274.36 137.4"/><circle class="cls-4" cx="323.06" cy="157.67" r="4.34"/><circle class="cls-4" cx="310.82" cy="185.13" r="4.34"/><rect class="cls-6" x="195.84" y="193.5" width="138.55" height="12.19" rx="2.25" ry="2.25" transform="matrix(0.91, 0.41, -0.41, 0.91, 104.2, -90.63)"/><rect class="cls-6" x="189.16" y="202.85" width="85.67" height="12.19" rx="2.25" ry="2.25" transform="translate(105.14 -76.34) rotate(24.02)"/><rect class="cls-6" x="280.45" y="233.52" width="40.73" height="12.19" rx="2.25" ry="2.25" transform="translate(123.58 -101.7) rotate(24.02)"/></g></g></svg>