<svg xmlns="http://www.w3.org/2000/svg" viewBox="0 0 333.6 78"><defs><style>.cls-1{fill:#fff;}</style></defs><title>Asset 39</title><g id="Layer_2" data-name="Layer 2"><g id="Layer_1-2" data-name="Layer 1"><path class="cls-1" d="M98.56,31.25c0-2.4,1.79-3.72,5.69-3.72,3.62,0,5.69,1.36,5.74,4.42h6.49c0-6.16-4.66-9.83-12.14-9.83s-12.27,3.76-12.27,9.27c0,12.84,18.39,7,18.39,14.44,0,2.44-2.21,3.76-6.07,3.76-4.28,0-6.49-1.6-6.49-4.51H91.41c0,6.39,4.66,9.92,12.65,9.92,7.67,0,12.84-3.53,12.84-9.17C116.9,32.52,98.56,38.3,98.56,31.25Z"/><path class="cls-1" d="M135.15,31.43A8,8,0,0,0,128,35.06V21.32h-6.39v33.4h6.49V41.83a4.46,4.46,0,0,1,4.65-4.8c2.64,0,4.05,1.79,4.05,4.52V54.72h6.44V39.9C143.24,35.2,140.42,31.43,135.15,31.43Z"/><path class="cls-1" d="M159.33,31.43c-7.06,0-11.81,4.94-11.81,11.91S152.27,55,159.33,55,171.18,50,171.18,43.1,166.48,31.43,159.33,31.43Zm0,18.21c-3.2,0-5.32-2.59-5.32-6.4s2.12-6.49,5.32-6.49,5.31,2.59,5.31,6.49S162.62,49.64,159.33,49.64Z"/><path class="cls-1" d="M189.29,31.43a8.12,8.12,0,0,0-7.2,3.58L182,31.62H175.7v32.6h6.44V51.43c1.27,2.11,3.53,3.52,6.91,3.52,6.26,0,10.26-5,10.26-12.13S195.12,31.43,189.29,31.43ZM187.6,49.54a5.48,5.48,0,0,1-5.46-5.64V42.44a5.51,5.51,0,0,1,5.5-5.6c3.15,0,5.13,2.45,5.13,6.26S190.65,49.54,187.6,49.54Z"/><path class="cls-1" d="M217.18,22.45H204.67V54.72h12.51c9.36,0,15.76-6,15.76-16.14S226.49,22.45,217.18,22.45Zm0,26.91h-6V27.81h6c5.36,0,9.22,3.67,9.22,10.77S222.59,49.36,217.18,49.36Z"/><path class="cls-1" d="M248.27,31.43c-7.06,0-11.81,4.94-11.81,11.91S241.21,55,248.27,55,260.12,50,260.12,43.1,255.42,31.43,248.27,31.43Zm0,18.21c-3.2,0-5.31-2.59-5.31-6.4s2.11-6.49,5.31-6.49,5.32,2.59,5.32,6.49S251.56,49.64,248.27,49.64Z"/><path class="cls-1" d="M275.22,31.43c-7.05,0-11.81,4.94-11.81,11.91S268.17,55,275.22,55,287.07,50,287.07,43.1,282.37,31.43,275.22,31.43Zm0,18.21c-3.2,0-5.31-2.59-5.31-6.4s2.11-6.49,5.31-6.49,5.32,2.59,5.32,6.49S278.51,49.64,275.22,49.64Z"/><path class="cls-1" d="M297.94,35.43l-.14-3.76h-6.21v23H298V42.82a5.46,5.46,0,0,1,5.65-5.13,3.91,3.91,0,0,1,1.6.24l0-6.31a4.21,4.21,0,0,0-1.45-.19A6.19,6.19,0,0,0,297.94,35.43Z"/><path class="cls-1" d="M329.55,49.64c-.66,0-1.08-.47-1.08-1.41V40.8c0-5.84-3.58-9.37-10.31-9.37-6,0-10,2.87-10.39,8.1h5.83c.24-2,1.79-3.2,4.23-3.2,2.92,0,4.38,1.6,4.38,4v1h-3c-6.31,0-12.09,1.65-12.09,7.29,0,3.81,2.73,6.3,7.81,6.3,4.89,0,6.82-2.3,7.57-3.71h0A5,5,0,0,0,327.81,55a10.62,10.62,0,0,0,3.29-.47l-.38-5.08A2.84,2.84,0,0,1,329.55,49.64Zm-7.34-3.29c0,1.83-2.07,3.9-5.46,3.9-2.21,0-3.34-.85-3.34-2.35,0-2,2-3,5.46-3h3.34Z"/><path class="cls-1" d="M331,25c-.18,0-.39-.06-.57-.41L329.67,23a1.47,1.47,0,0,0,1.21-1.53,1.56,1.56,0,0,0-1.74-1.62h-2v5.54h.5V23h1.48l.81,1.59c.27.52.52.78,1.06.78a1.67,1.67,0,0,0,.39,0l-.05-.44A.81.81,0,0,1,331,25Zm-3.4-2.34V20.26h1.52a1.18,1.18,0,1,1,0,2.35Z"/><path class="cls-1" d="M328.92,17.93a4.68,4.68,0,1,0,4.68,4.68A4.69,4.69,0,0,0,328.92,17.93Zm0,9.08a4.4,4.4,0,1,1,4.4-4.4A4.4,4.4,0,0,1,328.92,27Z"/><path class="cls-1" d="M92.7,3.82a1.61,1.61,0,0,0,.13-.54,2,2,0,0,0-1.69-2.14C87.6.7,81.06.22,78,0a2.52,2.52,0,0,0-2.43,1.38l-4.15,8.3a2.81,2.81,0,0,1-2.53,1.56C37.14,11,13.91,17.78,3.31,21.6a5,5,0,0,0-2.07,8A165,165,0,0,0,19.52,46.93a7.57,7.57,0,0,0,6.54,1.52c9.11-2.11,19.56-3.69,27.08-4.68a1.58,1.58,0,0,1,.75,3.06A105.94,105.94,0,0,0,29.65,59.45a2.58,2.58,0,0,0-.73,3.41l0,.06a2.45,2.45,0,0,0,3.25.89A239.4,239.4,0,0,1,68.57,48.32a3.1,3.1,0,0,0,2.11-2.74,50.65,50.65,0,0,0,.07-5.92,2.63,2.63,0,0,0-1.87-2.37h0a2.29,2.29,0,0,0-.36-.07,115.18,115.18,0,0,0-15.69-1.51h0c-4.48-.22-9.85-.34-16-.18a6.34,6.34,0,0,1-4.73-2L28.5,29.75a1.64,1.64,0,0,1,.5-2.62,75.78,75.78,0,0,1,23.32-6.24,113.41,113.41,0,0,1,18.73-.06,3.87,3.87,0,0,0,3.85-2.22c1.83-3.88,4.09-9.17,5.25-11.9a3,3,0,0,1,2.78-1.85c2.46,0,5.73.11,7.74.2A2.12,2.12,0,0,0,92.7,3.82Z"/><path class="cls-1" d="M38.13,66.66c-2-1.13-5,.41-6.71,3.44s-1.58,6.39.38,7.53,5-.41,6.71-3.44S40.09,67.79,38.13,66.66Z"/><path class="cls-1" d="M71.38,51.57c-2-1.13-5,.41-6.72,3.43s-1.57,6.4.39,7.53,5-.4,6.71-3.43S73.34,52.7,71.38,51.57Z"/></g></g></svg>