<svg xmlns="http://www.w3.org/2000/svg" viewBox="0 0 313.1 359.62"><defs><style>.cls-1{fill:#f9d1b4;}.cls-2{fill:#d3a07d;}.cls-3{fill:#302323;}.cls-4{fill:#513b3b;}.cls-5{fill:#f7b228;}.cls-6{fill:#751fc1;}.cls-7{fill:#ce8d1b;}.cls-8{fill:#fff;}.cls-9{fill:#982ce5;}.cls-10{fill:#e8adf7;}</style></defs><title>Asset 56</title><g id="Layer_2" data-name="Layer 2"><g id="Layer_1-2" data-name="Layer 1"><path class="cls-1" d="M168.13,336.12c-.5-3.62-.9-20.06-.79-26.37,0-.37,0-.72,0-1v0c0-.15,0-.33,0-.55.54-14.68.79-36.75.76-52.85,0-9.84-.15-17.47-.35-19.77-.74-8-3-34.34-3-34.34-9.9-12.42-27.76,4-27.76,4s-.26,9.49.24,19c.31,6,1,17.12,2.52,29.3.72,5.81,1.62,11.88,2.74,17.73a.3.3,0,0,1,0,.13c1.4,4.75,2.85,9.51,4.08,13,.22.68.44,1.31.66,1.88,3.48,9.32,5.54,13.52,5.23,22.46l-3.17,5.5v0s-1.87,2.52-4.61,5.8-1.64,10.54-2.93,15-2.37,6.88-1.27,8.52,4.42-1.1,5.76-4.93,2.59-9.51,3.92-8.22,1.51,21.91,2.3,27,5,0,10.48-4.36S168.66,340,168.13,336.12Z"/><path class="cls-2" d="M101.92,114.9,99.15,81.63H91.72c-.06-2.09-.1-3.52-.12-3.79-.06-1.11-13.71,1.23-13.71,1.23l-.67,2.56H65.85L63.07,114.9l11.1,2c.12,5,.51,9,1.38,9.82,2.73,2.66,3.51,1.3,10.2-1.63,3.24-1.41,4.88-4.62,5.7-8.3Z"/><path class="cls-1" d="M115.83,45.84c-1.74,18.37-6.59,53-33.27,53-16.1,0-24.25-12.6-28.58-26.64a117.31,117.31,0,0,1-3.82-18.51c-.38-2.82-.65-5.49-.88-7.88-1.74-18.36,13.86-35,33.28-35S117.56,27.48,115.83,45.84Z"/><path class="cls-3" d="M102.48,32.41s.08,11.61-8.19,14.21S50,52.53,50,52.53,45.64,47,46,29.81,63.31,0,82.55,0s24.09,10.84,24.09,10.84a18.56,18.56,0,0,1,12.13,16.54c1,13.17-3.67,25.15-3.67,25.15S103.87,40.73,102.48,32.41Z"/><path class="cls-4" d="M84.36,75.77a11.22,11.22,0,0,1-3-.47,3,3,0,0,0-.34-.09,1,1,0,0,1-1-1,1.08,1.08,0,0,1,1.1-1,2.72,2.72,0,0,1,.79.16c3,.85,4.53.42,5.15-1.52a1,1,0,0,1,2,.63A4.47,4.47,0,0,1,84.36,75.77Z"/><circle class="cls-4" cx="69.68" cy="59.09" r="3.25"/><circle class="cls-4" cx="95.43" cy="59.09" r="3.25"/><path class="cls-2" d="M54,72.23c-3.49-.31-5.51-10-6.11-13.72-.64-4.08,1.44-4.79,2.29-4.79A117.31,117.31,0,0,0,54,72.23Z"/><path class="cls-2" d="M111.13,72.23c3.49-.31,5.51-10,6.11-13.72.65-4.08-1.43-4.79-2.28-4.79A117.37,117.37,0,0,1,111.13,72.23Z"/><path class="cls-4" d="M82.44,86.19A19.38,19.38,0,0,1,69.8,81.62,1.09,1.09,0,0,1,71.3,80,17.57,17.57,0,0,0,86.75,83.5a1.1,1.1,0,0,1,.48,2.14A22,22,0,0,1,82.44,86.19Z"/><path class="cls-5" d="M164.84,166.9h.09s-1-17.86-2.08-26.19-3.11-12.82-10-18.89-42.46-19.21-52-21.82c0,0,.72,2.61-3.09,9a14.13,14.13,0,0,1-4.51,4.39,19.86,19.86,0,0,1-21.28,0A14,14,0,0,1,67.4,109c-3.82-6.39-3.09-9-3.09-9-9.56,2.61-45.08,15.78-52,21.82s-9,10.59-10,18.89S.17,166.9.17,166.9s-.38,22.57,0,34.27c0,0,15.69,3.29,27.74,4,0,0,1.31,54.41,3,85.09,0,0,24.92,8.77,51.47,8.77l.11,0v0c.68,0,1.36,0,2,0l0,0a0,0,0,0,0,0,0c.42,0,.81,0,1.23,0,25.29-.63,48.19-8.7,48.19-8.7,1.69-30.68,3.11-85.09,3.11-85.09,12-.72,27.76-4,27.76-4C165.2,189.47,164.84,166.9,164.84,166.9Z"/><path class="cls-6" d="M136.35,299c1.47-3.29-2.26-8.77-2.26-8.77s-23,8.08-48.31,8.72v0c-.42,0-.81,0-1.23,0h0c-.62,0-1.26,0-1.89,0v-3.22a.55.55,0,0,0-.11.17V299h0V296a.55.55,0,0,0-.11-.17V299c-.63,0-1.27,0-1.89,0h0c-.42,0-.81,0-1.23,0v0c-25.34-.64-48.31-8.72-48.31-8.72s-3.73,5.48-2.26,8.77c0,0-1.77,26.33-.35,49.34,0,0,19.75,4.14,50.92,4.68v.05h6.56v-.05c31.17-.54,50.92-4.68,50.92-4.68C138.12,325.37,136.35,299,136.35,299Z"/><path class="cls-5" d="M.16,166.9H.07s1-17.86,2.08-26.19,3.11-12.82,10-18.89,42.46-19.21,52-21.82c0,0-.72,2.61,3.09,9a14.13,14.13,0,0,0,4.51,4.39,19.86,19.86,0,0,0,21.28,0A14,14,0,0,0,97.6,109c3.82-6.39,3.09-9,3.09-9,9.56,2.61,45.08,15.78,52,21.82s9,10.59,10,18.89,2.08,26.19,2.08,26.19.38,22.57,0,34.27c0,0-15.69,3.29-27.74,4,0,0-1.31,54.41-3,85.09,0,0-24.92,8.77-51.47,8.77l-.11,0v0c-.68,0-1.36,0-2,0l0,0a0,0,0,0,1,0,0c-.42,0-.81,0-1.23,0-25.29-.63-48.19-8.7-48.19-8.7-1.69-30.68-3.11-85.09-3.11-85.09-12.05-.72-27.76-4-27.76-4C-.19,189.47.16,166.9.16,166.9Z"/><path class="cls-7" d="M39.76,195.39c-2.58.83-5.06,1.62-7.4,2.34,0,0-.07-30.17,1-34.91s2.74,13.5,4.93,21.92A64.36,64.36,0,0,1,39.76,195.39Z"/><rect class="cls-6" x="96.69" y="138.76" width="23.49" height="48.2" rx="1.62" ry="1.62" transform="translate(19.7 -11.52) rotate(6.69)"/><path class="cls-1" d="M120.19,155.74c-1.76,1.64-5.58,6-5.58,6l-.07.14c-.38.27-.78.58-1.21,1-5.2,4.52-15.43,5.23-16.07,4.89s-.59-4.93-.18-8.22-2.82-6.48-3.47-4.43-2.76,8.26-4.4,13.74a27.52,27.52,0,0,0-1,10.42s-27,9.33-48.32,16.13c-2.59.83-5.06,1.62-7.41,2.34-7.73,2.39-13.91,4.17-16.5,4.54,0,0-5.1-4.38-15.69-1.1,0,0,.73,24.83,6.93,30.68s23,6.58,53.33-12,35-23.38,35-23.38c8.11-5.07,16.13-5,19.55-7.43s5.47-7.45,5.14-13.21c-.2-3.46.19-7.46,0-10.23,1-2.78,2.35-5.45,2.76-7.89C123.6,154.37,122,154.1,120.19,155.74Z"/><circle class="cls-8" cx="103.15" cy="142.64" r="1.73"/><path class="cls-9" d="M292.15,135H231.62a21,21,0,0,0-21,20.94v159.2a21,21,0,0,0,21,20.94h60.53a21,21,0,0,0,21-20.94V155.91A21,21,0,0,0,292.15,135Zm14.46,180.14a14.48,14.48,0,0,1-14.46,14.45H231.62a14.48,14.48,0,0,1-14.46-14.45V155.91a14.48,14.48,0,0,1,14.46-14.45h4.19v2.85A4.2,4.2,0,0,0,240,148.5h43.77a4.2,4.2,0,0,0,4.19-4.19v-2.85h4.19a14.48,14.48,0,0,1,14.46,14.45Z"/><path class="cls-10" d="M306.61,155.91v159.2a14.48,14.48,0,0,1-14.46,14.45H231.62a14.48,14.48,0,0,1-14.46-14.45V155.91a14.48,14.48,0,0,1,14.46-14.45h4.19v2.85A4.2,4.2,0,0,0,240,148.5h43.77a4.2,4.2,0,0,0,4.19-4.19v-2.85h4.19A14.48,14.48,0,0,1,306.61,155.91Z"/><path class="cls-8" d="M230,259.34c0-.67.5-1,1.59-1s1.59.38,1.61,1.24H235c0-1.72-1.3-2.75-3.39-2.75s-3.43,1-3.43,2.59c0,3.59,5.14,2,5.14,4,0,.68-.62,1.05-1.7,1.05s-1.81-.45-1.81-1.26H228c0,1.79,1.3,2.77,3.54,2.77s3.59-1,3.59-2.56C235.16,259.7,230,261.31,230,259.34Z"/><path class="cls-8" d="M240.26,259.39a2.25,2.25,0,0,0-2,1v-3.84h-1.79v9.33h1.82v-3.6a1.24,1.24,0,0,1,1.3-1.34c.74,0,1.13.5,1.13,1.26v3.68h1.8v-4.14A2.19,2.19,0,0,0,240.26,259.39Z"/><path class="cls-8" d="M247,259.39a3.17,3.17,0,0,0-3.3,3.33A3.11,3.11,0,0,0,247,266a3.15,3.15,0,0,0,3.31-3.31A3.11,3.11,0,0,0,247,259.39Zm0,5.09c-.9,0-1.49-.72-1.49-1.78s.59-1.82,1.49-1.82,1.48.72,1.48,1.82S247.94,264.48,247,264.48Z"/><path class="cls-8" d="M255.39,259.39a2.29,2.29,0,0,0-2,1l0-.94h-1.75v9.11h1.81V265a2.08,2.08,0,0,0,1.93,1c1.75,0,2.87-1.39,2.87-3.39S257,259.39,255.39,259.39Zm-.47,5.07a1.53,1.53,0,0,1-1.52-1.58v-.41a1.54,1.54,0,0,1,1.53-1.56c.89,0,1.44.68,1.44,1.75S255.78,264.46,254.92,264.46Z"/><path class="cls-8" d="M263.19,256.88h-3.5v9h3.5a4.51,4.51,0,0,0,0-9Zm0,7.52h-1.68v-6h1.68c1.5,0,2.58,1,2.58,3S264.7,264.4,263.19,264.4Z"/><path class="cls-8" d="M271.88,259.39a3.17,3.17,0,0,0-3.3,3.33,3.11,3.11,0,0,0,3.3,3.25,3.16,3.16,0,0,0,3.32-3.31A3.12,3.12,0,0,0,271.88,259.39Zm0,5.09c-.89,0-1.48-.72-1.48-1.78s.59-1.82,1.48-1.82,1.49.72,1.49,1.82S272.8,264.48,271.88,264.48Z"/><path class="cls-8" d="M279.42,259.39a3.17,3.17,0,0,0-3.3,3.33,3.11,3.11,0,0,0,3.3,3.25,3.15,3.15,0,0,0,3.31-3.31A3.11,3.11,0,0,0,279.42,259.39Zm0,5.09c-.9,0-1.49-.72-1.49-1.78s.59-1.82,1.49-1.82,1.48.72,1.48,1.82S280.34,264.48,279.42,264.48Z"/><path class="cls-8" d="M285.77,260.51l0-1.05H284v6.44h1.81v-3.32a1.52,1.52,0,0,1,1.57-1.44,1.06,1.06,0,0,1,.45.07v-1.76a1.12,1.12,0,0,0-.4-.06A1.72,1.72,0,0,0,285.77,260.51Z"/><path class="cls-8" d="M294.61,264.48c-.19,0-.31-.13-.31-.39V262c0-1.63-1-2.62-2.88-2.62-1.67,0-2.8.81-2.9,2.27h1.63a1,1,0,0,1,1.18-.9,1.07,1.07,0,0,1,1.22,1.12v.29h-.82c-1.77,0-3.38.46-3.38,2,0,1.06.76,1.76,2.18,1.76a2.16,2.16,0,0,0,2.12-1h0a1.41,1.41,0,0,0,1.46,1,3,3,0,0,0,.92-.13l-.11-1.42A.81.81,0,0,1,294.61,264.48Zm-2.06-.92c0,.52-.57,1.09-1.52,1.09-.62,0-.93-.23-.93-.65s.56-.84,1.52-.84h.93Z"/><path class="cls-8" d="M295,257.58a.16.16,0,0,1-.16-.11l-.22-.44a.42.42,0,0,0,.34-.43.44.44,0,0,0-.49-.45h-.56v1.55h.14V257h.41l.23.45c.07.15.14.22.29.22l.11,0v-.12Zm-.95-.65v-.66h.42a.32.32,0,0,1,.35.33.32.32,0,0,1-.35.33Z"/><path class="cls-8" d="M294.43,255.62a1.31,1.31,0,1,0,1.31,1.31A1.31,1.31,0,0,0,294.43,255.62Zm0,2.54a1.23,1.23,0,1,1,1.23-1.23A1.23,1.23,0,0,1,294.43,258.16Z"/><path class="cls-8" d="M289,204.71a.88.88,0,0,0,.08-.31,1.14,1.14,0,0,0-1-1.26c-2.09-.27-5.94-.55-7.75-.68a1.51,1.51,0,0,0-1.44.82l-2.44,4.9a1.66,1.66,0,0,1-1.5.91c-18.71-.12-32.41,3.85-38.66,6.11a3,3,0,0,0-1.22,4.73,97.08,97.08,0,0,0,10.78,10.21,4.49,4.49,0,0,0,3.85.9c5.37-1.25,11.53-2.18,16-2.77a.94.94,0,0,1,.45,1.81,62.13,62.13,0,0,0-14.3,7.44,1.53,1.53,0,0,0-.43,2l0,0a1.43,1.43,0,0,0,1.91.53A143.42,143.42,0,0,1,274.74,231a1.81,1.81,0,0,0,1.24-1.61,30.65,30.65,0,0,0,0-3.49,1.55,1.55,0,0,0-1.11-1.4h0l-.21,0a67.24,67.24,0,0,0-9.26-.89h0c-2.64-.13-5.81-.2-9.41-.11a3.72,3.72,0,0,1-2.79-1.15L251.11,220a1,1,0,0,1,.3-1.55,44.68,44.68,0,0,1,13.75-3.68,66.16,66.16,0,0,1,11,0,2.31,2.31,0,0,0,2.28-1.31c1.07-2.29,2.41-5.41,3.09-7a1.78,1.78,0,0,1,1.64-1.09c1.45,0,3.38.06,4.56.11A1.24,1.24,0,0,0,289,204.71Z"/><path class="cls-8" d="M256.79,241.77c-1.16-.66-2.93.24-4,2s-.93,3.77.23,4.44,2.92-.24,4-2S258,242.44,256.79,241.77Z"/><path class="cls-8" d="M276.4,232.87c-1.16-.66-2.93.24-4,2s-.93,3.77.22,4.44,2.93-.24,4-2S277.55,233.54,276.4,232.87Z"/></g></g></svg>