<svg xmlns="http://www.w3.org/2000/svg" viewBox="0 0 443.5 266.08"><defs><style>.cls-1{fill:#ce8d1b;}.cls-2{fill:#751fc1;}.cls-3{fill:#982ce5;}.cls-4{fill:#f7b228;}.cls-5{fill:#fff;}.cls-6{fill:#d96cef;}</style></defs><title>Asset 51</title><g id="Layer_2" data-name="Layer 2"><g id="Layer_1-2" data-name="Layer 1"><path class="cls-1" d="M134.57,57.1c.33,1.33-6.11,13.38-10.67,21.64-2.45,4.46-4.35,7.81-4.35,7.81-2.9,2.74-6.15,5.9-9.83,9.5C90.88,114.5,80,124.21,70.32,127.81s-8.85-14.7-8.85-14.7,6.17-25,23.54-44.59a89.51,89.51,0,0,1,18.85-16h0a82.51,82.51,0,0,1,20-9.58V53.11C130.38,54.2,134.29,56,134.57,57.1Z"/><path class="cls-1" d="M123.9,78.74V82.6c0,7.13,0,13.06,0,15.37,0,7.66-16.9,30.57-16.9,30.57l-7.8,2.54L59.47,144c-1-2.55,2-30.84,2-30.84s-.86,18.29,8.85,14.7,20.56-13.31,39.4-31.76c3.68-3.6,6.93-6.76,9.83-9.5C119.55,86.55,121.45,83.2,123.9,78.74Z"/><path class="cls-2" d="M442.76,95c-3.53,3.83-19.63,9.94-32.07,15.62-22.46,10.24-66,23.9-89.18,22.42-11.74-.74-19.58-1.89-21.24-4.08h0c-1.61-2.12,2.66-5.24,14.95-9.87,2.61-1,5.1-1.94,7.48-2.86,1.31-.51,2.58-1,3.8-1.48,14.58-5.74,25.42-10.36,36.68-14,1.52-.48,3.07-1,4.61-1.41,13.38-3.92,28.08-6.46,50.66-7.77C440.38,90.31,445.67,91.92,442.76,95Z"/><path class="cls-3" d="M443.5,94.83s-6.14,97.05-16.91,104-63,31.51-74.58,33-34.6,3.07-39.22-6.5S300.24,129,300.24,129h0c1.66,2.19,9.5,3.34,21.24,4.08,23.16,1.48,66.72-12.18,89.18-22.42C423.13,105,439.23,98.84,442.76,95Z"/><path class="cls-1" d="M367.76,99.37c-1.54.44-3.09.93-4.61,1.41-3-10.77-12.18-36.7-28.44-29.46-15,6.64-11.26,31-8.24,43.44-1.22.46-2.49,1-3.8,1.48,0,0-18.74-39,9.34-49.35C355.93,58.06,365.48,89.82,367.76,99.37Z"/><path class="cls-4" d="M363.26,136.65a3,3,0,0,1-4-2.6c-1.22-14.17-3.34-64,25.77-76.36,30.42-12.9,32.72,42.93,32.86,54.88a3.5,3.5,0,0,1-1.95,3.19h0a2,2,0,0,1-2.85-1.59c-1.11-12.89-6.79-63.44-26.91-47.28s-21,56.9-20.86,66.84a3,3,0,0,1-2.07,2.9Z"/><path class="cls-5" d="M413.82,140.67c-2.35.21-6.63.82-8.64,1.11a1.63,1.63,0,0,0-1.37,1.23L402.29,149a1.85,1.85,0,0,1-1.42,1.35c-20.5,4.31-34.53,11.9-40.84,15.86a3.31,3.31,0,0,0-.21,5.46,108.29,108.29,0,0,0,14.21,8.6,5,5,0,0,0,4.44.07c5.57-2.64,12.09-5.12,16.8-6.81a1,1,0,0,1,.92,1.87,69.31,69.31,0,0,0-13.87,11.53,1.69,1.69,0,0,0,0,2.3l0,0a1.62,1.62,0,0,0,2.22.13,159.76,159.76,0,0,1,21.29-15.09,2,2,0,0,0,1-2.05,33.89,33.89,0,0,0-.78-3.83,1.74,1.74,0,0,0-1.54-1.27h-.25a77,77,0,0,0-10.33,1.23h0c-2.92.48-6.4,1.16-10.31,2.11a4.18,4.18,0,0,1-3.33-.6l-2.87-2a1.08,1.08,0,0,1,0-1.76,50,50,0,0,1,14.16-7.29,74.67,74.67,0,0,1,12.07-2.66,2.57,2.57,0,0,0,2.18-2c.63-2.76,1.36-6.49,1.72-8.41a2,2,0,0,1,1.53-1.58c1.59-.35,3.71-.73,5-1a1.39,1.39,0,0,0,1.14-1.08,1.18,1.18,0,0,0,0-.37A1.29,1.29,0,0,0,413.82,140.67Z"/><path class="cls-5" d="M388.8,190.35c-1.43-.46-3.15,1-3.85,3.15s-.13,4.35,1.3,4.8,3.14-1,3.84-3.15S390.22,190.8,388.8,190.35Z"/><path class="cls-5" d="M408.13,176c-1.42-.46-3.15,1-3.85,3.15s-.12,4.35,1.3,4.81,3.14-1,3.85-3.16S409.55,176.42,408.13,176Z"/><path class="cls-1" d="M113.11,144c.48,2.91,29.74-22.48,54-29.41s37.36-30.73,37.36-30.73-63.06-2.63-64.35,1.06S108.78,117.37,113.11,144Z"/><path class="cls-3" d="M270,9.52V110.36a9.53,9.53,0,0,1-9.54,9.52H98.38a9.57,9.57,0,0,1-8.5-5.19,9.23,9.23,0,0,1-1-4.33V9.52A9.53,9.53,0,0,1,98.38,0H260.5A9.53,9.53,0,0,1,270,9.52Z"/><rect class="cls-2" x="88.84" y="19.07" width="181.21" height="23.85"/><path class="cls-4" d="M238.64,93.72a9.92,9.92,0,0,0,3.09,7.19,9.92,9.92,0,1,1,0-14.37A9.91,9.91,0,0,0,238.64,93.72Z"/><path class="cls-1" d="M244.79,93.72a10,10,0,0,1-3.06,7.19,9.9,9.9,0,0,1,0-14.37A10,10,0,0,1,244.79,93.72Z"/><path class="cls-4" d="M258.47,93.72a9.91,9.91,0,0,1-16.74,7.19,10,10,0,0,0,0-14.37,9.91,9.91,0,0,1,16.74,7.18Z"/><rect class="cls-6" x="100.89" y="68.52" width="112.4" height="8.86"/><rect class="cls-6" x="100.89" y="84.87" width="45.98" height="8.86"/><path class="cls-4" d="M142.26,109.54c-3.4,3.72-6.85,7.09-10.18,10.34-8,7.76-15.21,14.83-19,24.07-5.33,13.12-10.89,49.46-24.27,57.35C73.92,210.08,71,235.73,71.57,258.7,67.15,261.15,58,268,34.43,265.55,5.31,262.48,0,244.33,0,244.33c7.15-19.55,18.72-50.15,21.5-60,4.09-14.53.67-50.58.67-67.95S26.26,98,45.67,79.58,69.18,54,75.31,52.5c3.88-1,7.11-.1,13.53.29V64.5c-1.31,1.26-2.58,2.61-3.83,4-17.37,19.6-23.54,44.59-23.54,44.59s-.86,18.29,8.85,14.7c5.68-2.11,11.73-6.3,19.56-13.12,5.58-4.83,12-11,19.84-18.64.82-.8,1.62-1.59,2.39-2.33,2.72-2.66,5.19-5,7.44-7.17.61-.58,1.21-1.13,1.8-1.68.88-.8,1.74-1.55,2.55-2.27a78.15,78.15,0,0,1,6.6-5.23c6-4.13,10.9-5.29,16.89-3.8a7.61,7.61,0,0,1,5,3.8C156.42,84.56,151.33,99.56,142.26,109.54Z"/></g></g></svg>