<svg xmlns="http://www.w3.org/2000/svg" viewBox="0 0 33.25 33.25"><defs><style>.cls-1{fill:#777;}</style></defs><title>Asset 42</title><g id="Layer_2" data-name="Layer 2"><g id="Layer_1-2" data-name="Layer 1"><path class="cls-1" d="M16.63,0A16.63,16.63,0,1,0,33.25,16.63,16.62,16.62,0,0,0,16.63,0Zm0,29.17A12.55,12.55,0,1,1,29.17,16.63,12.55,12.55,0,0,1,16.63,29.17Z"/><path class="cls-1" d="M18.25,14.58V6.42H15v8.16a2.62,2.62,0,0,0-1,2,2.85,2.85,0,0,0,0,.29L10.6,20.35l2.3,2.3,3.43-3.43a2.77,2.77,0,0,0,.3,0,2.61,2.61,0,0,0,1.62-4.67Z"/></g></g></svg>