<svg xmlns="http://www.w3.org/2000/svg" viewBox="0 0 339.38 339.38"><defs><style>.cls-1{fill:#eaeaea;}.cls-2{fill:#fff;}</style></defs><title>Asset 41</title><g id="Layer_2" data-name="Layer 2"><g id="Layer_1-2" data-name="Layer 1"><path class="cls-1" d="M339.38,13V326.43a13,13,0,0,1-12.95,12.95H13A13,13,0,0,1,0,326.43V13A13,13,0,0,1,13,0H326.43A13,13,0,0,1,339.38,13Z"/><path class="cls-2" d="M224.36,126H182.24l-5.74-13.34H136.21L130.47,126H115a16.66,16.66,0,0,0-16.66,16.66V210A16.66,16.66,0,0,0,115,226.69H224.36A16.66,16.66,0,0,0,241,210V142.69A16.66,16.66,0,0,0,224.36,126Zm-54.67,85.66A35.33,35.33,0,1,1,205,176.36,35.33,35.33,0,0,1,169.69,211.69Zm45.58-54.33a6,6,0,1,1,6-6A6,6,0,0,1,215.27,157.36Z"/><circle class="cls-2" cx="169.69" cy="176.36" r="20.33"/></g></g></svg>