<svg xmlns="http://www.w3.org/2000/svg" viewBox="0 0 130.46 130.46"><defs><style>.cls-1{fill:#6eb1f4;}.cls-2{fill:#c61414;}.cls-3{fill:#e2e2e2;}.cls-4{fill:#f9a98a;}.cls-5{fill:#b2b2b2;}.cls-6{fill:#fff;}.cls-7{fill:#ce6e51;}</style></defs><title>Asset 14</title><g id="Layer_2" data-name="Layer 2"><g id="Layer_1-2" data-name="Layer 1"><circle class="cls-1" cx="65.23" cy="65.23" r="65.23"/><path class="cls-2" d="M70.27,62.08v20.2a14.15,14.15,0,0,1-28.3,0V62.08a57.56,57.56,0,0,0,14.15,1.45A57.62,57.62,0,0,0,70.27,62.08Z"/><path class="cls-3" d="M70.27,42V62.08a57.62,57.62,0,0,1-14.15,1.45A57.56,57.56,0,0,1,42,62.08V42a14.15,14.15,0,0,1,28.3,0Z"/><path class="cls-4" d="M51.11,83.12c0,.63-1,1.24-2.78,1.74a26.27,26.27,0,0,1-3.76.72c-1,.16-2,.26-3.18.37-1.78.13-3.68.21-5.7.21a52,52,0,0,1-12.63-1.3c-1.77-.5-2.81-1.11-2.81-1.74s1-1.27,2.81-1.75a24.48,24.48,0,0,1,2.7-.58c.93-.16,1.94-.29,3-.4A60.41,60.41,0,0,1,35.69,80a50.64,50.64,0,0,1,12.64,1.33C50.07,81.85,51.11,82.45,51.11,83.12Z"/><rect class="cls-5" x="75.34" y="47.48" width="28.37" height="48.2" rx="2.19" ry="2.19" transform="translate(76.84 -42.34) rotate(45)"/><circle class="cls-6" cx="96" cy="56.13" r="3.18"/><circle class="cls-6" cx="104.98" cy="65.11" r="3.18"/><circle class="cls-6" cx="88.68" cy="63.45" r="3.18"/><circle class="cls-6" cx="97.66" cy="72.43" r="3.18"/><circle class="cls-6" cx="81.36" cy="70.77" r="3.18"/><circle class="cls-6" cx="90.34" cy="79.76" r="3.18"/><circle class="cls-6" cx="74.04" cy="78.09" r="3.18"/><circle class="cls-6" cx="83.02" cy="87.08" r="3.18"/><path class="cls-7" d="M51.11,83.12v7.94c0,.64-1,1.25-2.78,1.75a52.36,52.36,0,0,1-12.64,1.3,52,52,0,0,1-12.63-1.3c-1.77-.5-2.81-1.11-2.81-1.75V83.12c0,.63,1,1.24,2.81,1.74a52,52,0,0,0,12.63,1.3,52.36,52.36,0,0,0,12.64-1.3C50.07,84.36,51.11,83.75,51.11,83.12Z"/><path class="cls-7" d="M44.57,85.58c-1,.16-2,.26-3.18.37L25.76,80.79c.93-.16,1.94-.29,3-.4Z"/></g></g></svg>