<svg xmlns="http://www.w3.org/2000/svg" viewBox="0 0 130.46 130.46"><defs><style>.cls-1{fill:#d6d6d6;}.cls-2{fill:#b77635;}.cls-3{fill:#d89d6c;}.cls-4{fill:#35190d;}.cls-5{fill:#703314;}.cls-6{fill:#ededed;}.cls-7{fill:#ddc0ac;}.cls-8{fill:#db9a26;}.cls-9{fill:#7a7a7a;}.cls-10{fill:#e82a2a;}.cls-11{fill:#a3765f;}.cls-12{fill:#e5b05c;}.cls-13{fill:#282828;}</style></defs><title>Asset 15</title><g id="Layer_2" data-name="Layer 2"><g id="Layer_1-2" data-name="Layer 1"><circle class="cls-1" cx="65.23" cy="65.23" r="65.23"/><polygon class="cls-2" points="99.2 75.11 65.55 88.62 28.75 81.28 62.4 67.77 99.2 75.11"/><path class="cls-3" d="M98.63,84.11a9.3,9.3,0,0,0,.57,1.42L65.55,99,28.75,91.7s-2-1.41-2-5.3,2-5.12,2-5.12l1.46.29,35.34,7.05L99.2,75.11A12.75,12.75,0,0,0,98.63,84.11Z"/><path class="cls-4" d="M99.2,85.53,65.55,99,28.75,91.7s-2-1.41-2-5.3,2-5.12,2-5.12l1.46.29s-1.68,1.52-1.46,5.19,1.15,3.72,1.15,3.72l35.59,7L98.63,84.11A9.3,9.3,0,0,0,99.2,85.53Z"/><polygon class="cls-5" points="28.96 84.04 65.61 91.64 98.22 78.49 65.49 92.46 28.96 84.04"/><path class="cls-5" d="M32.12,87.33s33.08,7.22,33.25,7.28S89.89,84.54,89.89,84.54L65.37,95Z"/><path class="cls-6" d="M76.9,73.22a62.66,62.66,0,0,1,3.75-7.67S82,64,86.47,62s17.93-6.56,21.34-12.07,3.11-6.27,3.11-6.27A31.64,31.64,0,0,1,109.41,59c-3,7.4-15.3,14.22-23.17,14.75s-9.88.76-9.88.76Z"/><path class="cls-7" d="M91.72,65.67C84.89,67.4,78.53,72,76.45,73.57a2,2,0,0,0-.07-.67c-.35-1.18-1.12-.12-3.41,1.94s-4.47,6.52-4.47,6.52c1.83.53,4.77-3.94,6.23-4s2.36-.71,1.71-1.59a1.19,1.19,0,0,1-.23-.6c1.9-1.21,9-5.66,13.13-7.11,4.76-1.68,6.79-2.46,13-7a19.59,19.59,0,0,0,6.6-8.48C106.48,57.55,98.76,63.88,91.72,65.67Z"/><path class="cls-7" d="M109,52.52a7.39,7.39,0,0,0,.83-2.62A15.41,15.41,0,0,1,109,52.52Z"/><path class="cls-8" d="M34.07,37.88,58.18,62a2.76,2.76,0,0,0-1.66,2.83A2.44,2.44,0,0,0,54.31,67a.1.1,0,0,0,0,0,2.85,2.85,0,0,0-2.79,1.62L27.4,44.55c.76-.67,1.54-1.38,2.33-2.14.37-.35.75-.71,1.12-1.09s.73-.73,1.07-1.1C32.68,39.43,33.4,38.65,34.07,37.88Z"/><path class="cls-9" d="M30.46,34.27l3.61,3.61c-1,1.12-2,2.28-3.22,3.44s-2.33,2.25-3.45,3.23l-3.61-3.61c1.12-1,2.28-2.07,3.45-3.23S29.48,35.39,30.46,34.27Z"/><path class="cls-10" d="M28.87,32.68l1.59,1.59c-1,1.12-2.06,2.27-3.22,3.44S24.91,40,23.79,40.94L22.2,39.35a4.62,4.62,0,0,1-1.29-2.49,3.51,3.51,0,0,1-.09-.85,4.72,4.72,0,0,1,8.05-3.33Z"/><path class="cls-11" d="M58.18,62l2,8.71-8.72-2A2.85,2.85,0,0,1,54.3,67a2.47,2.47,0,0,1,2.22-2.22A2.76,2.76,0,0,1,58.18,62Z"/><path class="cls-12" d="M31.92,40.22l24.6,24.6A2.44,2.44,0,0,0,54.31,67L29.73,42.41c.37-.35.75-.71,1.12-1.09S31.58,40.59,31.92,40.22Z"/><rect class="cls-13" x="59.36" y="69.73" width="1.3" height="1.5" transform="translate(-32.26 63.08) rotate(-45)"/></g></g></svg>