<svg xmlns="http://www.w3.org/2000/svg" viewBox="0 0 58.97 48.64"><defs><style>.cls-1{fill:#ed2f93;}</style></defs><title>Asset 51</title><g id="Layer_2" data-name="Layer 2"><g id="Layer_1-2" data-name="Layer 1"><path class="cls-1" d="M45.69,0,44.3,8.39a4.72,4.72,0,0,0-2.67-.8H4.84A4.86,4.86,0,0,0,0,13L2.68,34.37a5.71,5.71,0,0,0,5.54,5,4.61,4.61,0,1,0,.11,0H37.16a4.64,4.64,0,1,0,.1,0,5.14,5.14,0,0,0,2.38-.59,5.44,5.44,0,0,0,3-3.56,2.11,2.11,0,0,0,.17-.62L46.4,13.22a4.07,4.07,0,0,0,.06-.6l0-.22,1.62-9.56H59V0Z"/></g></g></svg>