<svg xmlns="http://www.w3.org/2000/svg" viewBox="0 0 405.16 94.73"><defs><style>.cls-1{font-size:57.12px;font-family:LotaGrotesque-Bold, Lota Grotesque;}.cls-1,.cls-7{fill:#982ce5;}.cls-2{font-weight:700;}.cls-3,.cls-4,.cls-5,.cls-6{fill:#282828;}.cls-3,.cls-4,.cls-5{font-family:LotaGrotesque-Light, Lota Grotesque;}.cls-3{letter-spacing:0em;}.cls-4{letter-spacing:-0.01em;}.cls-5{letter-spacing:-0.01em;}</style></defs><title>Asset 26</title><g id="Layer_2" data-name="Layer 2"><g id="Layer_1-2" data-name="Layer 1"><text class="cls-1" transform="translate(112.1 66.46)"><tspan class="cls-2">Shop</tspan><tspan class="cls-3" x="135.1" y="0">Doo</tspan><tspan class="cls-4" x="240.09" y="0">r</tspan><tspan class="cls-5" x="257.57" y="0">a</tspan></text><path class="cls-6" d="M402,30.3a.73.73,0,0,1-.69-.49l-.95-1.91A1.8,1.8,0,0,0,401.86,26a1.9,1.9,0,0,0-2.12-2H397.3V30.8h.6V28h1.8l1,1.93c.33.64.63,1,1.29,1a1.78,1.78,0,0,0,.47-.07l-.06-.53A.92.92,0,0,1,402,30.3Zm-4.13-2.83V24.6h1.84a1.44,1.44,0,1,1,0,2.87Z"/><path class="cls-6" d="M399.48,21.78a5.68,5.68,0,1,0,5.68,5.68A5.68,5.68,0,0,0,399.48,21.78Zm0,11a5.35,5.35,0,1,1,5.34-5.35A5.36,5.36,0,0,1,399.48,32.81Z"/><path class="cls-7" d="M110.69,1.39C106.39.84,98.45.26,94.72,0a3.05,3.05,0,0,0-3,1.68l-5,10.08a3.41,3.41,0,0,1-3.08,1.89C45.11,13.41,16.9,21.59,4,26.24A6.09,6.09,0,0,0,1.51,36a200.48,200.48,0,0,0,22.2,21,9.22,9.22,0,0,0,7.94,1.85c11.06-2.57,23.75-4.49,32.89-5.7A1.93,1.93,0,0,1,66.72,55h0a1.92,1.92,0,0,1-1.26,1.85A128.13,128.13,0,0,0,36,72.21a3.14,3.14,0,0,0-.89,4.14l0,.06a3,3,0,0,0,3.94,1.08A293.22,293.22,0,0,1,83.28,58.68a3.75,3.75,0,0,0,2.56-3.32,62.1,62.1,0,0,0,.09-7.19,3.21,3.21,0,0,0-2.28-2.88h0a3.12,3.12,0,0,0-.44-.09c-1.54-.3-7.2-1.27-19-1.83h0c-5.44-.27-12-.41-19.37-.22A7.64,7.64,0,0,1,39,40.77l-4.41-4.63A2,2,0,0,1,35.22,33a91.84,91.84,0,0,1,28.33-7.59,138.32,138.32,0,0,1,22.74-.07A4.72,4.72,0,0,0,91,22.61c2.22-4.73,5-11.14,6.37-14.46a3.7,3.7,0,0,1,3.38-2.24c3,0,7,.13,9.4.23a2.56,2.56,0,0,0,2.47-1.5,1.86,1.86,0,0,0,.15-.66A2.35,2.35,0,0,0,110.69,1.39Z"/><path class="cls-7" d="M46.31,81c-2.38-1.37-6,.5-8.15,4.17s-1.92,7.77.46,9.15,6-.5,8.15-4.17S48.69,82.33,46.31,81Z"/><ellipse class="cls-7" cx="82.84" cy="69.29" rx="7.69" ry="4.97" transform="translate(-18.58 106.39) rotate(-60)"/></g></g></svg>