<svg xmlns="http://www.w3.org/2000/svg" viewBox="0 0 1605.72 375.43"><defs><style>.cls-1{font-size:226.4px;font-family:LotaGrotesque-Bold, Lota Grotesque;font-weight:700;}.cls-1,.cls-4{fill:#fff;}.cls-2{letter-spacing:-0.01em;}.cls-3{letter-spacing:0em;}</style></defs><title>Asset 3</title><g id="Layer_2" data-name="Layer 2"><g id="Layer_1-2" data-name="Layer 1"><text class="cls-1" transform="translate(432.06 263.38)">ShopDoo<tspan class="cls-2" x="957.65" y="0">r</tspan><tspan class="cls-3" x="1039.38" y="0">a</tspan></text><path class="cls-4" d="M1593.34,120.08c-.9,0-1.88-.27-2.74-2l-3.75-7.55a7.08,7.08,0,0,0,5.79-7.39c0-5.32-3.8-7.79-8.37-7.79h-9.71v26.69H1577V110.85h7.16l3.87,7.67c1.29,2.5,2.51,3.75,5.13,3.75A7.3,7.3,0,0,0,1595,122l-.24-2.12A3.54,3.54,0,0,1,1593.34,120.08ZM1577,108.85V97.51h7.32c3.44,0,5.94,1.95,5.94,5.67s-2.5,5.67-5.94,5.67Z"/><path class="cls-4" d="M1583.21,86.32a22.52,22.52,0,1,0,22.51,22.51A22.54,22.54,0,0,0,1583.21,86.32Zm0,43.7a21.19,21.19,0,1,1,21.19-21.19A21.21,21.21,0,0,1,1583.21,130Z"/><path class="cls-4" d="M438.69,5.51C421.64,3.35,390.16,1.05,375.38,0A12.12,12.12,0,0,0,363.7,6.7l-20,40a13.51,13.51,0,0,1-12.18,7.48C178.77,53.14,67,85.56,16,104a24.15,24.15,0,0,0-10,38.6c29.66,33.92,67.66,66.6,88,83.31a36.54,36.54,0,0,0,31.49,7.32c43.83-10.16,94.12-17.78,130.34-22.56a7.65,7.65,0,0,1,8.63,7.38h0a7.64,7.64,0,0,1-5,7.36c-58,21.27-100,48.8-116.71,60.77a12.4,12.4,0,0,0-3.5,16.41l.15.26A11.73,11.73,0,0,0,155,307.13c71.89-38.95,148.84-65.88,175.07-74.57a14.87,14.87,0,0,0,10.16-13.15,243.29,243.29,0,0,0,.35-28.49,12.58,12.58,0,0,0-9-11.41h-.06a12.2,12.2,0,0,0-1.72-.36c-6.12-1.2-28.57-5-75.51-7.24h-.06c-21.55-1.1-47.42-1.65-76.77-.89a30.36,30.36,0,0,1-22.77-9.44l-17.48-18.36a7.89,7.89,0,0,1,2.42-12.6c17.89-8.24,59-24.63,112.26-30.08a546.71,546.71,0,0,1,90.12-.25A18.76,18.76,0,0,0,360.53,89.6c8.8-18.72,19.7-44.16,25.26-57.28a14.61,14.61,0,0,1,13.37-8.91c11.87-.07,27.59.51,37.26.93a10.14,10.14,0,0,0,9.79-6,7.86,7.86,0,0,0,.61-2.59A9.36,9.36,0,0,0,438.69,5.51Z"/><path class="cls-4" d="M183.53,320.87c-9.42-5.45-23.89,1.95-32.3,16.53s-7.59,30.8,1.83,36.24,23.89-2,32.31-16.53S193,326.31,183.53,320.87Z"/><ellipse class="cls-4" cx="328.33" cy="274.61" rx="30.47" ry="19.71" transform="translate(-73.65 421.64) rotate(-60)"/></g></g></svg>