<svg xmlns="http://www.w3.org/2000/svg" viewBox="0 0 57.28 48.43"><defs><style>.cls-1{fill:#982ce5;}</style></defs><title>Asset 32</title><g id="Layer_2" data-name="Layer 2"><g id="Layer_1-2" data-name="Layer 1"><path class="cls-1" d="M43.44,3.63A11.89,11.89,0,0,0,34.89,0H22.39a11.87,11.87,0,0,0-8.55,3.63L0,18H57.28Z"/><path class="cls-1" d="M4.42,40.49a7.94,7.94,0,0,0,8,7.94H44.91a7.94,7.94,0,0,0,8-7.94V22.32H4.42ZM21.26,32A4.75,4.75,0,0,1,26,27.25h5.26A4.75,4.75,0,0,1,36,32v6.75a4.75,4.75,0,0,1-4.75,4.75H26a4.75,4.75,0,0,1-4.75-4.75Z"/></g></g></svg>