<svg xmlns="http://www.w3.org/2000/svg" viewBox="0 0 1172.33 274.1"><defs><style>.cls-1{fill:#982ce5;}.cls-2{fill:#282828;}</style></defs><title>Asset 12</title><g id="Layer_2" data-name="Layer 2"><g id="Layer_1-2" data-name="Layer 1"><path class="cls-1" d="M410.82,161.06c0,19.83-18.18,32.23-45.12,32.23-28.1,0-44.46-12.4-44.46-34.88H344c0,10.25,7.77,15.87,22.81,15.87,13.56,0,21.33-4.63,21.33-13.22,0-25.95-64.63-5.62-64.63-50.75,0-19.33,17.35-32.56,43.14-32.56,26.28,0,42.64,12.9,42.64,34.55H386.52c-.16-10.75-7.44-15.54-20.16-15.54-13.72,0-20,4.63-20,13.06C346.36,134.61,410.82,114.28,410.82,161.06Z"/><path class="cls-1" d="M503.38,140.23v52.06H480.74V146c0-9.58-5-15.86-14.22-15.86-9.91,0-16.36,6.77-16.36,16.86v45.28H427.35V74.94h22.48v48.27c4.79-7.44,12.89-12.73,25.12-12.73C493.46,110.48,503.38,123.7,503.38,140.23Z"/><path class="cls-1" d="M601.56,151.47c0,24.3-16.52,41.65-41.65,41.65-24.79,0-41.48-16.53-41.48-40.82,0-24.47,16.69-41.82,41.48-41.82C585,110.48,601.56,127.17,601.56,151.47Zm-60.33.49c0,13.39,7.44,22.48,18.68,22.48,11.57,0,18.68-9.09,18.68-22.48,0-13.71-7.11-22.8-18.68-22.8C548.67,129.16,541.23,138.25,541.23,152Z"/><path class="cls-1" d="M700.41,150.48c0,25.12-14,42.64-36,42.64-11.9,0-19.84-5-24.3-12.4v45H617.44V111.14h22l.49,11.9c4.63-7.27,13.06-12.56,25.29-12.56C685.7,110.48,700.41,124.86,700.41,150.48Zm-23,1c0-13.39-6.94-22-18-22-12.56,0-19.34,10.57-19.34,19.66v5.13c0,9.75,7.11,19.83,19.17,19.83C670,174.11,677.43,165.19,677.43,151.47Z"/><path class="cls-1" d="M818.59,135.6c0,35.7-22.48,56.69-55.37,56.69h-44V78.91h44C796,78.91,818.59,99.9,818.59,135.6Zm-23,0c0-25-13.55-37.85-32.39-37.85H742.06v75.7h21.16C782.23,173.45,795.61,160.56,795.61,135.6Z"/><path class="cls-1" d="M914.13,151.47c0,24.3-16.53,41.65-41.65,41.65-24.8,0-41.49-16.53-41.49-40.82,0-24.47,16.69-41.82,41.49-41.82C897.6,110.48,914.13,127.17,914.13,151.47ZM853.8,152c0,13.39,7.44,22.48,18.68,22.48,11.57,0,18.67-9.09,18.67-22.48,0-13.71-7.1-22.8-18.67-22.8C861.24,129.16,853.8,138.25,853.8,152Z"/><path class="cls-1" d="M1008.84,151.47c0,24.3-16.53,41.65-41.65,41.65-24.8,0-41.49-16.53-41.49-40.82,0-24.47,16.69-41.82,41.49-41.82C992.31,110.48,1008.84,127.17,1008.84,151.47Zm-60.33.49c0,13.39,7.44,22.48,18.68,22.48,11.57,0,18.67-9.09,18.67-22.48,0-13.71-7.1-22.8-18.67-22.8C956,129.16,948.51,138.25,948.51,152Z"/><path class="cls-1" d="M1073,111.14l-.16,22.15a13.6,13.6,0,0,0-5.62-.83c-10.25,0-18.51,6.45-19.84,18v41.81h-22.64v-81h21.82l.49,13.22c3.8-8.27,10.25-14,20.83-14A14.69,14.69,0,0,1,1073,111.14Z"/><path class="cls-1" d="M1163.55,191.47a38.19,38.19,0,0,1-11.57,1.65c-8.76,0-15.54-4.13-18.34-13.06h-.17c-2.65,5-9.42,13.06-26.61,13.06-17.85,0-27.44-8.76-27.44-22.15,0-19.83,20.33-25.62,42.48-25.62h10.41v-3.63c0-8.43-5.12-14-15.37-14-8.59,0-14,4.3-14.87,11.24h-20.5c1.32-18.35,15.54-28.43,36.53-28.43,23.63,0,36.2,12.4,36.2,32.89v26.11c0,3.31,1.48,5,3.8,5a10.21,10.21,0,0,0,4.13-.82Zm-31.24-28.6v-5.12h-11.73c-12.07,0-19.18,3.47-19.18,10.58,0,5.29,4,8.26,11.74,8.26C1125,176.59,1132.31,169.32,1132.31,162.87Z"/><path class="cls-2" d="M1163.29,87.67c-.66,0-1.37-.2-2-1.43l-2.74-5.51a5.16,5.16,0,0,0,4.23-5.4c0-3.88-2.77-5.68-6.12-5.68h-7.08V89.13h1.74v-8.2h5.23l2.83,5.6c.94,1.83,1.83,2.74,3.74,2.74a5.29,5.29,0,0,0,1.34-.2l-.17-1.54A2.75,2.75,0,0,1,1163.29,87.67Zm-12-8.2V71.19h5.34c2.52,0,4.35,1.43,4.35,4.14s-1.83,4.14-4.35,4.14Z"/><path class="cls-2" d="M1155.89,63a16.44,16.44,0,1,0,16.44,16.44A16.46,16.46,0,0,0,1155.89,63Zm0,31.91a15.47,15.47,0,1,1,15.47-15.47A15.49,15.49,0,0,1,1155.89,94.93Z"/><path class="cls-1" d="M320.29,4C307.83,2.44,284.85.77,274.06,0a8.87,8.87,0,0,0-8.52,4.87L251,34.07a9.87,9.87,0,0,1-8.89,5.46C130.52,38.8,48.9,62.47,11.64,75.92A17.63,17.63,0,0,0,4.36,104.1C26,128.87,53.76,152.73,68.6,164.93a26.67,26.67,0,0,0,23,5.34c32-7.42,68.71-13,95.16-16.47a5.58,5.58,0,0,1,6.3,5.39h0a5.57,5.57,0,0,1-3.65,5.37,370.69,370.69,0,0,0-85.21,44.37,9.07,9.07,0,0,0-2.56,12l.12.19a8.55,8.55,0,0,0,11.39,3.13c52.49-28.44,108.67-48.09,127.82-54.44a10.84,10.84,0,0,0,7.42-9.6,179.42,179.42,0,0,0,.26-20.8,9.21,9.21,0,0,0-6.59-8.33h0a8.8,8.8,0,0,0-1.26-.26c-4.46-.88-20.86-3.68-55.13-5.29h0c-15.74-.8-34.63-1.2-56.05-.65A22.14,22.14,0,0,1,112.91,118l-12.76-13.4a5.76,5.76,0,0,1,1.76-9.2,266,266,0,0,1,82-22,398.69,398.69,0,0,1,65.8-.19,13.68,13.68,0,0,0,13.55-7.8c6.42-13.66,14.39-32.24,18.44-41.82a10.69,10.69,0,0,1,9.77-6.5c8.66-.05,20.14.37,27.2.68a7.39,7.39,0,0,0,7.14-4.35,5.71,5.71,0,0,0,.45-1.89A6.84,6.84,0,0,0,320.29,4Z"/><path class="cls-1" d="M134,234.26c-6.89-4-17.45,1.43-23.59,12.07s-5.54,22.49,1.34,26.46,17.44-1.43,23.59-12.07S140.88,238.24,134,234.26Z"/><ellipse class="cls-1" cx="239.71" cy="200.49" rx="22.25" ry="14.39" transform="translate(-53.77 307.84) rotate(-60)"/></g></g></svg>